#N canvas 590 138 527 461 10;
#X obj 54 345 comport 0 9600;
#X text 134 7 GREEN;
#X text 134 47 BLUE;
#X msg 54 -32 print 1c\$1w;
#X obj 83 -51 hsl 128 15 0 255 0 0 empty empty empty -2 -8 0 10 -258113
-1 -1 0 1;
#X obj 83 -9 hsl 128 15 0 255 0 0 empty empty empty -2 -8 0 10 -4034
-1 -1 0 1;
#X obj 83 31 hsl 128 15 0 255 0 0 empty empty empty -2 -8 0 10 -4160
-1 -1 0 1;
#X obj 83 113 hsl 128 15 0 255 0 0 empty empty empty -2 -8 0 10 -128992
-1 -1 0 1;
#X obj 3 -52 cnv 15 40 40 empty empty empty 20 12 0 14 -233017 -66577
0;
#X text 7 -42 LAMP1;
#X obj 225 -52 cnv 15 40 40 empty empty empty 20 12 0 14 -233017 -66577
0;
#X text 229 -42 LAMP2;
#X obj 83 72 hsl 128 15 0 255 0 0 empty empty empty -2 -8 0 10 -228856
-1 -1 0 1;
#X obj 303 -51 hsl 128 15 0 255 0 0 empty empty empty -2 -8 0 10 -258113
-1 -1 0 1;
#X obj 303 -9 hsl 128 15 0 255 0 0 empty empty empty -2 -8 0 10 -4034
-1 -1 0 1;
#X obj 303 31 hsl 128 15 0 255 0 0 empty empty empty -2 -8 0 10 -4160
-1 -1 0 1;
#X obj 303 113 hsl 128 15 0 255 0 0 empty empty empty -2 -8 0 10 -262130
-1 -1 0 1;
#X obj 303 72 hsl 128 15 0 255 0 0 empty empty empty -2 -8 0 10 -66577
-1 -1 0 1;
#X obj 274 -52 int;
#X obj 274 -11 int;
#X obj 274 30 int;
#X obj 274 111 int;
#X obj 274 70 int;
#X obj 54 -52 int;
#X obj 54 -11 int;
#X obj 54 30 int;
#X obj 54 111 int;
#X obj 54 70 int;
#X msg 1 266 close 0;
#X msg 1 290 open 0;
#X msg 54 9 print 2c\$1w;
#X msg 54 50 print 3c\$1w;
#X msg 54 91 print 4c\$1w;
#X msg 54 131 print 5c\$1w;
#X obj 83 234 hsl 128 15 0 255 0 0 empty empty empty -2 -8 0 10 -159808
-1 -1 0 1;
#X obj 303 234 hsl 128 15 0 255 0 0 empty empty empty -2 -8 0 10 -228856
-1 -1 0 1;
#X obj 274 232 int;
#X obj 54 232 int;
#X obj 83 153 hsl 128 15 0 255 0 0 empty empty empty -2 -8 0 10 -228856
-1 -1 0 1;
#X obj 303 153 hsl 128 15 0 255 0 0 empty empty empty -2 -8 0 10 -228856
-1 -1 0 1;
#X obj 274 151 int;
#X obj 54 151 int;
#X msg 54 171 print 6c\$1w;
#X obj 83 193 hsl 128 15 0 255 0 0 empty empty empty -2 -8 0 10 -228856
-1 -1 0 1;
#X obj 303 193 hsl 128 15 0 255 0 0 empty empty empty -2 -8 0 10 -228856
-1 -1 0 1;
#X obj 274 191 int;
#X obj 54 191 int;
#X msg 54 211 print 7c\$1w;
#X msg 54 253 print 8c\$1w;
#X text 134 127 STROBE FREQ;
#X text 134 207 STROBE DUR;
#X msg 274 -32 print 9c\$1w;
#X msg 274 9 print 10c\$1w;
#X msg 274 171 print 14c\$1w;
#X msg 274 131 print 13c\$1w;
#X msg 274 211 print 15c\$1w;
#X msg 274 253 print 16c\$1w;
#X msg 274 50 print 11c\$1w;
#X msg 274 91 print 12c\$1w;
#X text 146 276 addr 1 /// res 8bit /// fdr OFF /// HSP OFF ///;
#X text 145 293 addr 9 /// res 8bit /// fdr ON /// HSP OFF ///;
#X text 134 167 comment;
#X text 134 87 WHITE;
#X text 166 365 fader off: strobe \, channel-4 is white;
#X text 166 334 fader on: no strobe \, channel-4 is dimmer \; channel-5
is temp;
#X text 134 -33 RED;
#X text 134 247 STROBE EFFECT;
#X text 364 -32 RED;
#X text 364 9 GREEN;
#X text 364 50 BLUE;
#X text 364 214 STROBE DUR;
#X text 364 255 STROBE EFFECT;
#X text 364 173 STROBE FREQ;
#X text 364 91 DIMMER;
#X text 364 132 TEMPERATURE;
#X text 134 170 STROBE FREQ;
#X text 2 -75 DMX light: Wybron Cygnus VN100 model 7500 \;;
#X connect 3 0 0 0;
#X connect 4 0 23 0;
#X connect 5 0 24 0;
#X connect 6 0 25 0;
#X connect 7 0 26 0;
#X connect 12 0 27 0;
#X connect 13 0 18 0;
#X connect 14 0 19 0;
#X connect 15 0 20 0;
#X connect 16 0 21 0;
#X connect 17 0 22 0;
#X connect 18 0 51 0;
#X connect 19 0 52 0;
#X connect 20 0 57 0;
#X connect 21 0 54 0;
#X connect 22 0 58 0;
#X connect 23 0 3 0;
#X connect 24 0 30 0;
#X connect 25 0 31 0;
#X connect 26 0 33 0;
#X connect 27 0 32 0;
#X connect 28 0 0 0;
#X connect 29 0 0 0;
#X connect 30 0 0 0;
#X connect 31 0 0 0;
#X connect 32 0 0 0;
#X connect 33 0 0 0;
#X connect 34 0 37 0;
#X connect 35 0 36 0;
#X connect 36 0 56 0;
#X connect 37 0 48 0;
#X connect 38 0 41 0;
#X connect 39 0 40 0;
#X connect 40 0 53 0;
#X connect 41 0 42 0;
#X connect 43 0 46 0;
#X connect 44 0 45 0;
#X connect 45 0 55 0;
#X connect 46 0 47 0;
#X connect 51 0 0 0;
#X connect 52 0 0 0;
#X connect 54 0 0 0;
#X connect 57 0 0 0;
#X connect 58 0 0 0;
