#N canvas 626 326 527 302 10;
#X obj 54 201 comport 0 9600;
#X text 134 -33 RED;
#X text 134 8 GREEN;
#X text 134 49 BLUE;
#X text 134 90 WHITE;
#X text 132 145 DIMMER;
#X msg 54 -32 print 1c\$1w;
#X obj 83 -51 hsl 128 15 0 255 0 0 empty empty empty -2 -8 0 10 -258113
-1 -1 12700 1;
#X obj 83 -9 hsl 128 15 0 255 0 0 empty empty empty -2 -8 0 10 -4034
-1 -1 12700 1;
#X msg 54 9 print 2c\$1w;
#X obj 83 31 hsl 128 15 0 255 0 0 empty empty empty -2 -8 0 10 -4160
-1 -1 12700 1;
#X msg 54 50 print 3c\$1w;
#X obj 83 73 hsl 128 15 0 255 0 0 empty empty empty -2 -8 0 10 -228856
-1 -1 12700 1;
#X obj 3 -52 cnv 15 40 40 empty empty empty 20 12 0 14 -233017 -66577
0;
#X text 7 -42 LAMP1;
#X obj 225 -52 cnv 15 40 40 empty empty empty 20 12 0 14 -233017 -66577
0;
#X text 229 -42 LAMP2;
#X obj 83 126 hsl 128 15 0 255 0 0 empty empty empty -2 -8 0 10 -66577
-1 -1 3100 1;
#X msg 54 91 print 4c\$1w;
#X msg 54 145 print 7c\$1w;
#X obj 303 -51 hsl 128 15 0 255 0 0 empty empty empty -2 -8 0 10 -258113
-1 -1 0 1;
#X obj 303 -9 hsl 128 15 0 255 0 0 empty empty empty -2 -8 0 10 -4034
-1 -1 5000 1;
#X obj 303 31 hsl 128 15 0 255 0 0 empty empty empty -2 -8 0 10 -4160
-1 -1 11300 1;
#X obj 303 73 hsl 128 15 0 255 0 0 empty empty empty -2 -8 0 10 -228856
-1 -1 0 1;
#X obj 303 126 hsl 128 15 0 255 0 0 empty empty empty -2 -8 0 10 -66577
-1 -1 12700 1;
#X msg 274 145 print 15c\$1w;
#X msg 274 91 print 12c\$1w;
#X msg 274 50 print 11c\$1w;
#X msg 274 9 print 10c\$1w;
#X msg 274 -32 print 9c\$1w;
#X text 2 -75 DMX light: Fusion color 18 FC RGBW \; 8RGBW mode;
#X obj 274 -52 int;
#X obj 274 -11 int;
#X obj 274 30 int;
#X obj 274 71 int;
#X obj 274 124 int;
#X obj 54 -52 int;
#X obj 54 -11 int;
#X obj 54 30 int;
#X obj 54 71 int;
#X obj 54 124 int;
#X connect 6 0 0 0;
#X connect 7 0 36 0;
#X connect 8 0 37 0;
#X connect 9 0 0 0;
#X connect 10 0 38 0;
#X connect 11 0 0 0;
#X connect 12 0 39 0;
#X connect 17 0 40 0;
#X connect 18 0 0 0;
#X connect 19 0 0 0;
#X connect 20 0 31 0;
#X connect 21 0 32 0;
#X connect 22 0 33 0;
#X connect 23 0 34 0;
#X connect 24 0 35 0;
#X connect 25 0 0 0;
#X connect 26 0 0 0;
#X connect 27 0 0 0;
#X connect 28 0 0 0;
#X connect 29 0 0 0;
#X connect 31 0 29 0;
#X connect 32 0 28 0;
#X connect 33 0 27 0;
#X connect 34 0 26 0;
#X connect 35 0 25 0;
#X connect 36 0 6 0;
#X connect 37 0 9 0;
#X connect 38 0 11 0;
#X connect 39 0 18 0;
#X connect 40 0 19 0;
