#N canvas 185 78 1039 662 10;
#X obj -111 -15 print osc;
#X obj 583 386 cnv 15 60 22 empty empty empty 20 12 0 14 -253938 -66577
0;
#N canvas 146 163 525 433 serin 0;
#X obj 180 61 cnv 15 15 15 empty \$0-number-canvas 0 4 8 0 14 -233017
-1 0;
#X obj 200 225 s \$0-number-canvas;
#X obj 60 61 hradio 15 1 1 8 empty empty empty 0 -6 0 8 -225271 -1
-1 0;
#X obj 60 13 inlet;
#X msg 200 202 label \$1;
#X obj 200 180 makefilename %d;
#X obj 59 108 int;
#X msg 59 206 open \$1;
#X obj 59 377 outlet;
#X msg 201 306 set \$1 \$2;
#X obj 59 266 trigger bang anything;
#X obj 201 286 list;
#X obj 383 383 outlet;
#X obj 384 22 netreceive 34567;
#X obj 477 43 tgl 15 0 empty empty empty 0 -6 0 10 -262144 -1 -1 0
1;
#X obj 384 41 bng 15 250 50 0 empty empty empty 0 -6 0 10 -262144 -1
-1;
#X obj 187 24 delay 15000;
#X text 345 379 close;
#X text 209 4 for open/close automation in Makefile;
#X obj 184 95 bang;
#X obj 184 137 send ARDUINO_TEST_RESET;
#X msg 184 116 set 0;
#X connect 2 0 6 0;
#X connect 2 0 19 0;
#X connect 3 0 2 0;
#X connect 4 0 1 0;
#X connect 5 0 4 0;
#X connect 6 0 5 0;
#X connect 6 0 7 0;
#X connect 7 0 10 0;
#X connect 9 0 8 0;
#X connect 10 0 8 0;
#X connect 10 1 11 0;
#X connect 11 0 9 0;
#X connect 13 0 15 0;
#X connect 13 1 14 0;
#X connect 15 0 16 0;
#X connect 15 0 12 0;
#X connect 16 0 2 0;
#X connect 19 0 21 0;
#X connect 21 0 20 0;
#X coords 0 -1 1 1 136 17 1 60 60;
#X restore 584 408 pd serin;
#X text 584 364 serial port #;
#X msg 646 390 close;
#X msg 586 432 info;
#X obj 586 495 arduino 1;
#X msg 586 456 devices;
#X text 641 433 <-- get connection info;
#X text 641 454 <-- list available serial devices;
#X msg 586 390 open 0;
#X obj -132 254 bng 15 250 50 0 empty empty empty 17 7 0 10 -204786
-1 -1;
#X obj -133 182 OSCroute /cellcoordinates;
#X floatatom -55 254 5 0 0 0 - - -;
#X text 816 208 red;
#X msg 144 238 255 \, 0 400;
#X obj 144 262 line;
#X msg 658 209 print 1c255w;
#X msg 658 233 print 2c255w;
#X msg 658 257 print 3c255w;
#X msg 658 281 print 4c255w;
#X text 816 229 green;
#X text 816 250 blue;
#X obj -136 154 s conv;
#X obj 241 137 s data;
#X obj -112 278 s cellcoo;
#X obj -136 -40 dumpOSC 50000;
#X obj -112 206 unpack f f;
#X floatatom 107 290 5 1 255 1 red - -;
#X msg 107 332 print 1c\$1w;
#X floatatom 219 291 5 1 255 1 green - -;
#X msg 211 333 print 2c\$1w;
#X obj 658 332 s RGBW;
#X text 816 271 white;
#X obj 527 430 r RGBW;
#X floatatom 303 293 5 1 255 1 blue - -;
#X floatatom 303 333 5 1 255 0 - - -;
#X msg 303 333 print 3c\$1w;
#X msg 302 421 print 4c\$1w;
#X floatatom 204 100 5 0 0 0 - - -;
#X obj -112 230 change;
#X floatatom -112 254 5 0 0 0 - - -;
#X floatatom 648 32 5 0 0 0 - - -;
#X msg 745 209 print 1c0w;
#X msg 745 233 print 2c0w;
#X msg 745 257 print 3c0w;
#X msg 745 281 print 4c0w;
#X msg 2 448 print 5c\$1w;
#X floatatom 176 544 5 1 255 1 dimmer - -;
#X msg 176 565 print 7c\$1w;
#X obj 133 385 s COLOUR;
#X floatatom 309 376 5 1 255 1 white - -;
#X obj 527 454 r COLOUR;
#X obj 176 518 int;
#X obj 176 494 line;
#X msg 176 446 0 \, \$1 600;
#X msg 176 470 255 \, \$1 400;
#X floatatom 139 423 5 0 255 0 - - -;
#X floatatom 139 446 5 0 255 0 - - -;
#X msg 658 305 print 7c255w;
#X msg 745 305 print 7c0w;
#X text 816 292 dimmer;
#X obj -109 93 change;
#X obj 299 188 cnv 15 50 30 empty empty empty 20 12 0 14 -4160 -66577
0;
#X obj 303 195 r signalz;
#X obj 35 366 cnv 15 50 30 empty empty empty 20 12 0 14 -4032 -66577
0;
#X obj 78 183 cnv 15 50 30 empty empty empty 20 12 0 14 -258113 -66577
0;
#X obj 214 187 cnv 15 50 30 empty empty empty 20 12 0 14 -4034 -66577
0;
#X obj 138 198 cnv 15 50 30 empty empty empty 20 12 0 14 -1 -66577
0;
#X obj 219 193 r data;
#X obj 83 189 r conv;
#X floatatom 303 455 5 1 255 1 color - -;
#X msg 303 497 print 8c\$1w;
#X obj 343 531 cnv 15 50 30 empty empty empty 20 12 0 14 -257985 -66577
0;
#X obj -136 74 +;
#X floatatom 724 584 5 0 0 0 - - -;
#X floatatom 778 584 5 0 0 0 - - -;
#X floatatom 833 582 5 0 0 0 - - -;
#X floatatom 729 506 5 0 0 0 - - -;
#X obj 729 528 expr $f1 \; if ($f1>0 \, $f1 \, 0) \; if ($f1<0 \, $f1
\, 0);
#X obj 745 332 s RGBW;
#X floatatom 2 404 5 0 0 1 strobo - -;
#X obj 204 75 +;
#X obj 620 31 +;
#X obj 709 148 s distance;
#X obj 303 313 int;
#X obj 107 311 int;
#X obj 219 312 int;
#X obj 144 204 r sms;
#X obj 39 372 r distance;
#X obj 241 75 change;
#X obj 2 425 int;
#X obj 347 537 r distance;
#X obj 303 476 int;
#X obj 309 398 int;
#X obj 241 100 maxlib/scale 180 14380 0 255;
#X obj -141 16 cnv 15 150 55 empty empty empty 20 12 0 14 -233017 -66577
0;
#X obj -136 23 OSCroute /conversation;
#X floatatom -109 74 5 0 0 0 - - -;
#X obj -136 46 unpack f;
#X floatatom -79 47 5 0 0 0 - - -;
#X obj 22 16 cnv 15 150 55 empty empty empty 20 12 0 14 -233017 -66577
0;
#X obj 27 46 unpack f;
#X floatatom 84 47 5 0 0 0 - - -;
#X obj 27 23 OSCroute /sms;
#X obj 27 100 change;
#X obj 580 209 cnv 15 70 80 empty empty empty 20 12 0 14 -261234 -66577
0;
#X msg 591 241 0;
#X msg 591 265 255;
#X obj 530 250 s data;
#X obj 530 274 s conv;
#X obj 530 298 s sms;
#X obj 530 322 s distance;
#X obj 530 346 s signalz;
#X obj 199 16 cnv 15 150 55 empty empty empty 20 12 0 14 -233017 -66577
0;
#X obj 204 46 unpack f;
#X floatatom 261 47 5 0 0 0 - - -;
#X obj 204 23 OSCroute /data;
#X obj 420 16 cnv 15 150 55 empty empty empty 20 12 0 14 -233017 -66577
0;
#X obj 425 46 unpack f;
#X floatatom 482 47 5 0 0 0 - - -;
#X obj 425 23 OSCroute /signal;
#X obj 615 -27 cnv 15 150 55 empty empty empty 20 12 0 14 -233017 -66577
0;
#X obj 620 3 unpack f;
#X floatatom 677 4 5 0 0 0 - - -;
#X obj 620 -20 OSCroute /celldistance;
#X obj 733 6 bng 15 250 50 0 empty empty empty 17 7 0 10 -4032 -1 -1
;
#X obj -27 47 bng 15 250 50 0 empty empty empty 17 7 0 10 -258113 -1
-1;
#X obj 27 137 s sms;
#X obj 130 48 bng 15 250 50 0 empty empty empty 17 7 0 10 -228856 -1
-1;
#X obj 27 75 int;
#X obj 302 47 bng 15 250 50 0 empty empty empty 17 7 0 10 -4034 -1
-1;
#X obj 591 298 s dimmer;
#X obj 648 51 moses 12;
#X obj 648 81 bng 15 250 50 0 empty empty empty 17 7 0 10 -262144 -1
-1;
#X obj 693 101 moses 200;
#X floatatom 744 123 5 0 0 0 - - -;
#X msg 648 100 0;
#X obj 693 78 maxlib/scale 12 22 255 165;
#X text 526 187 DMX programme 1 RGBW 8CHANNEL 1 red 2 green 3 blue
4 white;
#X text 584 518 The [arduino] object works with the Firmata firmware.
///// keep the arduino.pd patch in the same folder/////;
#X floatatom 83 220 5 0 255 0 - - -;
#X msg 83 239 \$1 600;
#X obj 83 262 line 0;
#X obj 218 518 r dimmer;
#X obj 591 218 bng 15 250 50 0 empty empty RESET 17 7 0 10 -262144
-1 -1;
#X floatatom 219 224 5 0 255 0 - - -;
#X msg 219 243 \$1 600;
#X obj 219 266 line 0;
#X obj 532 47 bng 15 250 50 0 empty empty empty 17 7 0 10 -4160 -1
-1;
#X floatatom 303 228 5 0 255 0 - - -;
#X msg 303 247 \$1 600;
#X obj 303 270 line 0;
#X text 709 33 for all values under 12m and above 19m send out a 0
;
#X obj -136 116 maxlib/scale 0 960 0 255;
#X obj 425 75 +;
#X floatatom 452 75 5 0 0 0 - - -;
#X obj 426 119 maxlib/scale 0 100 0 255;
#X obj 452 95 change;
#X obj 426 146 s signalz;
#X connect 2 0 10 0;
#X connect 2 1 4 0;
#X connect 4 0 6 0;
#X connect 5 0 6 0;
#X connect 7 0 6 0;
#X connect 10 0 6 0;
#X connect 12 0 27 0;
#X connect 13 0 25 0;
#X connect 15 0 16 0;
#X connect 16 0 28 0;
#X connect 17 0 32 0;
#X connect 18 0 32 0;
#X connect 19 0 32 0;
#X connect 20 0 32 0;
#X connect 26 0 0 0;
#X connect 26 0 97 0;
#X connect 26 0 104 0;
#X connect 26 0 117 0;
#X connect 26 0 125 0;
#X connect 26 0 121 0;
#X connect 27 0 40 0;
#X connect 27 1 13 0;
#X connect 28 0 86 0;
#X connect 29 0 50 0;
#X connect 30 0 87 0;
#X connect 31 0 50 0;
#X connect 34 0 6 0;
#X connect 35 0 85 0;
#X connect 37 0 50 0;
#X connect 38 0 50 0;
#X connect 39 0 82 1;
#X connect 39 0 90 0;
#X connect 40 0 41 0;
#X connect 40 0 11 0;
#X connect 41 0 25 0;
#X connect 42 0 83 1;
#X connect 42 0 133 0;
#X connect 43 0 80 0;
#X connect 44 0 80 0;
#X connect 45 0 80 0;
#X connect 46 0 80 0;
#X connect 47 0 50 0;
#X connect 48 0 49 0;
#X connect 49 0 50 0;
#X connect 51 0 94 0;
#X connect 52 0 6 0;
#X connect 53 0 48 0;
#X connect 54 0 53 0;
#X connect 55 0 54 0;
#X connect 56 0 54 0;
#X connect 57 0 55 0;
#X connect 58 0 56 0;
#X connect 59 0 32 0;
#X connect 60 0 80 0;
#X connect 62 0 127 0;
#X connect 62 0 154 0;
#X connect 64 0 150 0;
#X connect 69 0 146 0;
#X connect 70 0 141 0;
#X connect 71 0 93 0;
#X connect 72 0 50 0;
#X connect 74 0 98 0;
#X connect 78 0 79 0;
#X connect 79 0 75 0;
#X connect 79 1 76 0;
#X connect 79 2 77 0;
#X connect 81 0 91 0;
#X connect 82 0 39 0;
#X connect 83 0 42 0;
#X connect 85 0 36 0;
#X connect 86 0 29 0;
#X connect 87 0 31 0;
#X connect 88 0 15 0;
#X connect 89 0 81 0;
#X connect 90 0 95 0;
#X connect 90 0 131 0;
#X connect 91 0 47 0;
#X connect 93 0 72 0;
#X connect 94 0 38 0;
#X connect 95 0 24 0;
#X connect 97 0 99 0;
#X connect 98 0 74 1;
#X connect 98 0 62 0;
#X connect 99 0 100 0;
#X connect 99 0 74 0;
#X connect 102 0 103 0;
#X connect 102 0 130 0;
#X connect 104 0 102 0;
#X connect 105 0 129 0;
#X connect 105 0 128 0;
#X connect 107 0 109 0;
#X connect 107 0 110 0;
#X connect 107 0 111 0;
#X connect 107 0 112 0;
#X connect 107 0 113 0;
#X connect 108 0 132 0;
#X connect 115 0 116 0;
#X connect 115 0 82 0;
#X connect 117 0 115 0;
#X connect 119 0 120 0;
#X connect 119 0 155 0;
#X connect 121 0 119 0;
#X connect 123 0 124 0;
#X connect 123 0 83 0;
#X connect 125 0 123 0;
#X connect 130 0 105 0;
#X connect 133 0 134 0;
#X connect 133 1 138 0;
#X connect 134 0 137 0;
#X connect 135 0 134 0;
#X connect 135 1 136 0;
#X connect 135 1 126 0;
#X connect 136 0 84 0;
#X connect 137 0 84 0;
#X connect 138 0 135 0;
#X connect 141 0 142 0;
#X connect 142 0 143 0;
#X connect 143 0 28 0;
#X connect 144 0 48 0;
#X connect 145 0 107 0;
#X connect 146 0 147 0;
#X connect 147 0 148 0;
#X connect 148 0 30 0;
#X connect 150 0 151 0;
#X connect 151 0 152 0;
#X connect 152 0 35 0;
#X connect 154 0 23 0;
#X connect 155 0 156 0;
#X connect 156 0 155 1;
#X connect 156 0 158 0;
#X connect 157 0 159 0;
#X connect 158 0 157 0;
#X connect 158 0 149 0;
#X coords 0 0 1 1 85 60 0;
