#N canvas 185 78 1039 662 10;
#X obj -112 -15 print osc;
#X obj 606 233 cnv 15 60 22 empty empty empty 20 12 0 14 -253938 -66577
0;
#N canvas 146 163 525 433 serin 0;
#X obj 180 61 cnv 15 15 15 empty \$0-number-canvas 0 4 8 0 14 -233017
-1 0;
#X obj 200 225 s \$0-number-canvas;
#X obj 60 61 hradio 15 1 1 8 empty empty empty 0 -6 0 8 -225271 -1
-1 0;
#X obj 60 13 inlet;
#X msg 200 202 label \$1;
#X obj 200 180 makefilename %d;
#X obj 59 108 int;
#X msg 59 206 open \$1;
#X obj 59 377 outlet;
#X msg 201 306 set \$1 \$2;
#X obj 59 266 trigger bang anything;
#X obj 201 286 list;
#X obj 383 383 outlet;
#X obj 384 22 netreceive 34567;
#X obj 477 43 tgl 15 0 empty empty empty 0 -6 0 10 -262144 -1 -1 0
1;
#X obj 384 41 bng 15 250 50 0 empty empty empty 0 -6 0 10 -262144 -1
-1;
#X obj 187 24 delay 15000;
#X text 345 379 close;
#X text 209 4 for open/close automation in Makefile;
#X obj 184 95 bang;
#X obj 184 137 send ARDUINO_TEST_RESET;
#X msg 184 116 set 0;
#X connect 2 0 6 0;
#X connect 2 0 19 0;
#X connect 3 0 2 0;
#X connect 4 0 1 0;
#X connect 5 0 4 0;
#X connect 6 0 5 0;
#X connect 6 0 7 0;
#X connect 7 0 10 0;
#X connect 9 0 8 0;
#X connect 10 0 8 0;
#X connect 10 1 11 0;
#X connect 11 0 9 0;
#X connect 13 0 15 0;
#X connect 13 1 14 0;
#X connect 15 0 16 0;
#X connect 15 0 12 0;
#X connect 16 0 2 0;
#X connect 19 0 21 0;
#X connect 21 0 20 0;
#X coords 0 -1 1 1 136 17 1 60 60;
#X restore 607 255 pd serin;
#X text 607 211 serial port #;
#X msg 669 237 close;
#X msg 631 280 info;
#X obj 631 361 arduino 1;
#X msg 631 304 devices;
#X text 687 281 <-- get connection info;
#X text 10 -58 The [arduino] object works with the Firmata firmware.
;
#X text 687 302 <-- list available serial devices;
#X msg 609 237 open 0;
#X obj 116 142 cnv 15 100 22 empty empty empty 20 12 0 14 -253938 -66577
0;
#X msg 123 145 digital 10 0;
#X obj 274 96 tgl 15 0 empty ARDUINO_TEST_RESET 7 4 -6 1 12 -233017
-1 -1 0 1;
#X obj 296 96 tgl 15 0 empty ARDUINO_TEST_RESET 8 4 -6 1 12 -233017
-1 -1 0 1;
#X obj 317 96 tgl 15 0 empty ARDUINO_TEST_RESET 9 4 -6 1 12 -233017
-1 -1 0 1;
#X obj 339 95 tgl 15 0 empty ARDUINO_TEST_RESET 10 0 -6 1 12 -233017
-1 -1 0 1;
#X obj 361 95 tgl 15 0 empty ARDUINO_TEST_RESET 11 0 -6 1 12 -233017
-1 -1 0 1;
#X obj 382 96 tgl 15 0 empty ARDUINO_TEST_RESET 12 0 -6 1 12 -233017
-1 -1 0 1;
#X obj 404 95 tgl 15 0 empty ARDUINO_TEST_RESET 13 0 -6 1 12 -233017
-1 -1 0 1;
#X obj 166 96 tgl 15 0 empty ARDUINO_TEST_RESET 2 4 -6 1 12 -233017
-1 -1 0 1;
#X obj 187 96 tgl 15 0 empty ARDUINO_TEST_RESET 3 4 -6 1 12 -233017
-1 -1 0 1;
#X obj 209 96 tgl 15 0 empty ARDUINO_TEST_RESET 4 4 -6 1 12 -233017
-1 -1 0 1;
#X obj 231 96 tgl 15 0 empty ARDUINO_TEST_RESET 5 4 -6 1 12 -233017
-1 -1 0 1;
#X obj 252 96 tgl 15 0 empty ARDUINO_TEST_RESET 6 4 -6 1 12 -233017
-1 -1 0 1;
#X obj 470 68 tgl 25 0 empty ARDUINO_TEST_RESET ALL 2 12 0 12 -262144
-1 -1 0 1;
#X obj 426 96 tgl 15 0 empty ARDUINO_TEST_RESET 14 0 -6 1 12 -233017
-1 -1 0 1;
#N canvas 214 687 1035 340 generate 0;
#X obj 12 24 inlet;
#X obj 52 24 inlet;
#X obj 91 24 inlet;
#X obj 131 24 inlet;
#X obj 171 24 inlet;
#X obj 211 24 inlet;
#X obj 250 24 inlet;
#X obj 290 24 inlet;
#X obj 331 23 inlet;
#X obj 371 23 inlet;
#X obj 410 23 inlet;
#X obj 450 23 inlet;
#X obj 490 23 inlet;
#X msg 12 66 digital 0 \$1;
#X msg 52 88 digital 1 \$1;
#X msg 91 110 digital 2 \$1;
#X msg 131 130 digital 3 \$1;
#X msg 171 62 digital 4 \$1;
#X msg 211 84 digital 5 \$1;
#X msg 250 106 digital 6 \$1;
#X msg 290 126 digital 7 \$1;
#X msg 331 58 digital 8 \$1;
#X msg 371 80 digital 9 \$1;
#X msg 410 102 digital 10 \$1;
#X msg 450 122 digital 11 \$1;
#X msg 490 50 digital 12 \$1;
#X obj 529 23 inlet;
#X msg 529 70 digital 13 \$1;
#X obj 513 302 outlet;
#X obj 513 263 trigger bang anything;
#X obj 513 214 list prepend set;
#X obj 513 238 list trim;
#X obj 570 23 inlet;
#X msg 570 102 digital 14 \$1;
#X connect 0 0 13 0;
#X connect 1 0 14 0;
#X connect 2 0 15 0;
#X connect 3 0 16 0;
#X connect 4 0 17 0;
#X connect 5 0 18 0;
#X connect 6 0 19 0;
#X connect 7 0 20 0;
#X connect 8 0 21 0;
#X connect 9 0 22 0;
#X connect 10 0 23 0;
#X connect 11 0 24 0;
#X connect 12 0 25 0;
#X connect 13 0 30 0;
#X connect 14 0 30 0;
#X connect 15 0 30 0;
#X connect 16 0 30 0;
#X connect 17 0 30 0;
#X connect 18 0 30 0;
#X connect 19 0 30 0;
#X connect 20 0 30 0;
#X connect 21 0 30 0;
#X connect 22 0 30 0;
#X connect 23 0 30 0;
#X connect 24 0 30 0;
#X connect 25 0 30 0;
#X connect 26 0 27 0;
#X connect 27 0 30 0;
#X connect 29 0 28 0;
#X connect 29 1 28 0;
#X connect 30 0 31 0;
#X connect 31 0 29 0;
#X connect 32 0 33 0;
#X connect 33 0 30 0;
#X restore 123 118 pd generate digital out messages ------------------
;
#X obj 123 96 tgl 15 0 empty ARDUINO_TEST_RESET 0 4 -6 1 12 -233017
-1 -1 0 1;
#X obj 144 96 tgl 15 0 empty ARDUINO_TEST_RESET 1 4 -6 1 12 -233017
-1 -1 0 1;
#X obj -137 20 OSCroute /conversation;
#X obj -76 63 bng 15 250 50 0 empty empty empty 17 7 0 10 -4034 -1
-1;
#X floatatom -137 161 5 0 0 0 - - -;
#X obj -31 158 bng 15 250 50 0 empty empty empty 17 7 0 10 -204786
-1 -1;
#X text -137 541 /conversation + (int(minutes)) /sms + (int(1)) /data
+ (int(number of packets)) /signal + (int(strength)) /cellcoordinates
+ (float(latitude)+float(longitude)) /celldistance + (int(distance))
;
#X obj -137 137 OSCroute /sms;
#X obj -44 318 bng 15 250 50 0 empty empty empty 17 7 0 10 -258113
-1 -1;
#X obj -137 45 unpack f;
#X obj -137 161 unpack f;
#X obj -137 329 unpack f;
#X obj -137 304 OSCroute /data;
#X obj -44 491 bng 15 250 50 0 empty empty empty 17 7 0 10 -4160 -1
-1;
#X obj -137 447 OSCroute /cellcoordinates;
#X obj 126 491 bng 15 250 50 0 empty empty empty 17 7 0 10 -4032 -1
-1;
#X obj 28 491 unpack f;
#X obj 28 467 OSCroute /celldistance;
#X floatatom -80 516 5 0 0 0 - - -;
#X text 676 -20 red;
#X msg 730 83 print 1c\$1w;
#X floatatom 759 54 5 0 0 0 - - -;
#X msg 730 6 255 \, 0 400;
#X obj 730 30 line;
#X obj 730 54 int;
#X text 730 -16 go from 255 to 0 in 400ms;
#X text 518 -41 DMX;
#X msg 518 -19 print 1c255w;
#X msg 518 5 print 2c255w;
#X msg 518 29 print 3c255w;
#X msg 518 53 print 4c255w;
#X text 676 1 green;
#X text 676 22 blue;
#N canvas 913 440 450 300 bangz 0;
#X obj 138 21 inlet;
#X obj 185 21 inlet;
#X obj 138 127 outlet;
#X obj 185 156 outlet;
#X msg 185 111 0;
#X msg 138 66 1;
#X obj 185 66 delay 1000;
#X connect 0 0 5 0;
#X connect 1 0 6 0;
#X connect 4 0 3 0;
#X connect 5 0 2 0;
#X connect 6 0 4 0;
#X restore 296 2 pd bangz;
#N canvas 1050 484 450 300 bangz 0;
#X obj 138 21 inlet;
#X obj 185 21 inlet;
#X obj 138 127 outlet;
#X obj 185 156 outlet;
#X msg 185 111 0;
#X msg 138 66 1;
#X obj 185 66 delay 200;
#X connect 0 0 5 0;
#X connect 1 0 6 0;
#X connect 4 0 3 0;
#X connect 5 0 2 0;
#X connect 6 0 4 0;
#X restore 317 22 pd bangz;
#N canvas 1050 484 450 300 bangz 0;
#X obj 138 21 inlet;
#X obj 185 21 inlet;
#X obj 138 127 outlet;
#X obj 185 156 outlet;
#X msg 185 111 0;
#X msg 138 66 1;
#X obj 185 66 delay 200;
#X connect 0 0 5 0;
#X connect 1 0 6 0;
#X connect 4 0 3 0;
#X connect 5 0 2 0;
#X connect 6 0 4 0;
#X restore 361 62 pd bangz;
#N canvas 1050 484 450 300 bangz 0;
#X obj 138 21 inlet;
#X obj 185 21 inlet;
#X obj 138 127 outlet;
#X obj 185 156 outlet;
#X msg 185 111 0;
#X msg 138 66 1;
#X obj 185 66 delay 200;
#X connect 0 0 5 0;
#X connect 1 0 6 0;
#X connect 4 0 3 0;
#X connect 5 0 2 0;
#X connect 6 0 4 0;
#X restore 339 42 pd bangz;
#X obj -41 107 s conv;
#X obj 296 -20 r conv;
#X obj -31 204 s sms;
#X obj 362 1 r sms;
#X obj 29 327 s data;
#X obj 384 21 r data;
#X obj -44 513 s cellcoo;
#X floatatom -65 423 5 0 0 0 - - -;
#X obj -29 399 bng 15 250 50 0 empty empty empty 17 7 0 10 -162280
-1 -1;
#X obj -137 399 unpack f;
#X obj -137 375 OSCroute /signal;
#X obj -137 -40 dumpOSC 50000;
#X obj -8 429 s signalz;
#X obj 406 41 r signalz;
#X obj -137 471 unpack f f;
#X floatatom 256 176 5 1 255 1 red - -;
#X msg 248 218 print 1c\$1w;
#X floatatom 256 296 5 1 255 1 green - -;
#X msg 248 338 print 2c\$1w;
#X obj 518 140 s RGBW;
#X text 676 43 white;
#X obj 573 311 r RGBW;
#X floatatom 379 196 5 1 255 1 blue - -;
#X floatatom 379 236 5 1 255 0 - - -;
#X msg 379 236 print 3c\$1w;
#X msg 377 307 print 4c\$1w;
#X obj -10 135 change;
#X floatatom -10 159 5 0 0 0 - - -;
#X floatatom -64 352 5 0 0 0 - - -;
#X obj -8 383 change;
#X obj -137 495 change;
#X floatatom -137 519 5 0 0 0 - - -;
#X obj 28 516 change;
#X floatatom 102 518 5 0 0 0 - - -;
#X msg 605 -19 print 1c0w;
#X msg 605 5 print 2c0w;
#X msg 605 29 print 3c0w;
#X msg 605 53 print 4c0w;
#X msg 379 422 print 5c\$1w;
#X floatatom 192 279 5 1 255 2 dimmer - -;
#X msg 154 319 print 7c\$1w;
#X obj 248 369 s COLOUR;
#X text 546 -41 programme 1 RGBW 8CHANNEL 1 red 2 green 3 blue 4 white
;
#X floatatom 384 262 5 1 255 1 white - -;
#X obj 573 335 r COLOUR;
#X obj 154 272 int;
#X floatatom 154 296 5 0 255 1 - - -;
#X obj 154 248 line;
#X msg 154 200 0 \, \$1 600;
#X msg 154 224 255 \, \$1 400;
#X floatatom 117 205 5 0 255 0 - - -;
#X floatatom 117 228 5 0 255 0 - - -;
#X msg 518 77 print 7c255w;
#X msg 605 77 print 7c0w;
#X text 676 64 dimmer;
#X obj -56 41 change;
#X obj 444 260 cnv 15 50 30 empty empty empty 20 12 0 14 -233017 -66577
0;
#X obj 448 266 r signalz;
#X obj 442 148 cnv 15 50 30 empty empty empty 20 12 0 14 -4032 -66577
0;
#X obj 314 268 cnv 15 50 30 empty empty empty 20 12 0 14 -4034 -66577
0;
#X obj 314 183 cnv 15 50 30 empty empty empty 20 12 0 14 -258113 -66577
0;
#X obj 451 388 cnv 15 50 30 empty empty empty 20 12 0 14 -1 -66577
0;
#X obj 318 189 r data;
#X obj 318 274 r conv;
#X floatatom 379 448 5 1 255 1 color - -;
#X msg 379 490 print 8c\$1w;
#X text 496 170 inverse the value so it gets more white-like with a
more distant cell;
#X text 483 417 give a rhythmicity to data interaction (pulsating effect)
use only on 1 light \, only for some values or when difference froem
before is high;
#X obj 448 455 cnv 15 50 30 empty empty empty 20 12 0 14 -257985 -66577
0;
#X text 513 387 starts at 16 \; relatively equal on-offs at 165 \;
relatively pleasant onwards;
#X text 480 488 uploaded data;
#X floatatom -81 110 5 0 0 0 - - -;
#X obj -108 110 +;
#X floatatom -137 67 5 0 0 0 - - -;
#X floatatom 264 579 5 0 0 0 - - -;
#X floatatom 318 579 5 0 0 0 - - -;
#X floatatom 373 577 5 0 0 0 - - -;
#X floatatom 268 480 5 0 0 0 - - -;
#X obj 269 523 expr $f1 \; if ($f1>0 \, $f1 \, 0) \; if ($f1<0 \, $f1
\, 0);
#X obj 605 104 s RGBW;
#X text 145 484 range 9-15m;
#X floatatom -72 181 5 0 0 0 - - -;
#X obj -99 181 +;
#X text -45 199;
#X floatatom 379 378 5 0 0 0 - - -;
#X obj -91 352 +;
#X text 49 422;
#X obj -93 422 +;
#X obj 74 517 +;
#X obj 171 498 s distance;
#X obj 379 216 int;
#X obj 256 197 int;
#X obj 256 317 int;
#X obj 457 394 r sms;
#X obj 446 154 r distance;
#X obj -31 179 maxlib/scale 15 34 165 255;
#X obj 139 520 maxlib/scale 9 19 0 255;
#X obj 19 205 moses 15;
#X floatatom -56 64 5 0 0 0 - - -;
#X floatatom -134 183 5 0 0 0 - - -;
#X floatatom -131 351 5 0 0 0 - - -;
#X obj -24 318 change;
#X floatatom -130 423 5 0 0 0 - - -;
#X floatatom -7 406 5 0 0 0 - - -;
#X obj 379 399 int;
#X obj 452 461 r distance;
#X obj 379 469 int;
#X obj 384 284 int;
#X obj -41 84 maxlib/scale 0 6567 0 255;
#X obj -24 354 maxlib/scale 180 14380 0 255;
#X connect 2 0 11 0;
#X connect 2 1 4 0;
#X connect 4 0 6 0;
#X connect 5 0 6 0;
#X connect 7 0 6 0;
#X connect 11 0 6 0;
#X connect 14 0 28 7;
#X connect 15 0 28 8;
#X connect 16 0 28 9;
#X connect 17 0 28 10;
#X connect 18 0 28 11;
#X connect 19 0 28 12;
#X connect 20 0 28 13;
#X connect 21 0 28 2;
#X connect 22 0 28 3;
#X connect 23 0 28 4;
#X connect 24 0 28 5;
#X connect 25 0 28 6;
#X connect 26 0 20 0;
#X connect 26 0 19 0;
#X connect 26 0 18 0;
#X connect 26 0 17 0;
#X connect 26 0 16 0;
#X connect 26 0 15 0;
#X connect 26 0 14 0;
#X connect 26 0 25 0;
#X connect 26 0 24 0;
#X connect 26 0 23 0;
#X connect 26 0 22 0;
#X connect 26 0 21 0;
#X connect 26 0 27 0;
#X connect 26 0 30 0;
#X connect 26 0 29 0;
#X connect 27 0 28 14;
#X connect 28 0 13 0;
#X connect 29 0 28 0;
#X connect 30 0 28 1;
#X connect 31 0 38 0;
#X connect 36 0 39 0;
#X connect 38 0 139 0;
#X connect 39 0 33 0;
#X connect 39 0 165 0;
#X connect 40 0 166 0;
#X connect 41 0 40 0;
#X connect 42 0 72 0;
#X connect 43 0 80 0;
#X connect 45 0 98 0;
#X connect 46 0 45 0;
#X connect 49 0 85 0;
#X connect 50 0 49 0;
#X connect 51 0 52 0;
#X connect 52 0 53 0;
#X connect 53 0 49 0;
#X connect 56 0 85 0;
#X connect 57 0 85 0;
#X connect 58 0 85 0;
#X connect 59 0 85 0;
#X connect 62 0 15 0;
#X connect 62 1 15 0;
#X connect 63 0 16 0;
#X connect 63 1 16 0;
#X connect 64 0 18 0;
#X connect 64 1 18 0;
#X connect 65 0 17 0;
#X connect 65 1 17 0;
#X connect 67 0 62 0;
#X connect 67 0 62 1;
#X connect 69 0 63 0;
#X connect 69 0 63 1;
#X connect 71 0 65 0;
#X connect 71 0 65 1;
#X connect 73 0 153 1;
#X connect 73 0 95 0;
#X connect 75 0 168 0;
#X connect 76 0 75 0;
#X connect 77 0 0 0;
#X connect 77 0 31 0;
#X connect 77 0 36 0;
#X connect 77 0 41 0;
#X connect 77 0 43 0;
#X connect 77 0 46 0;
#X connect 77 0 76 0;
#X connect 79 0 64 0;
#X connect 79 0 64 1;
#X connect 80 0 96 0;
#X connect 80 1 47 0;
#X connect 81 0 157 0;
#X connect 82 0 107 0;
#X connect 83 0 158 0;
#X connect 84 0 107 0;
#X connect 87 0 6 0;
#X connect 88 0 156 0;
#X connect 90 0 107 0;
#X connect 91 0 107 0;
#X connect 92 0 93 0;
#X connect 92 0 34 0;
#X connect 93 0 161 0;
#X connect 94 0 151 1;
#X connect 94 0 167 0;
#X connect 95 0 169 0;
#X connect 95 0 74 0;
#X connect 96 0 97 0;
#X connect 96 0 42 0;
#X connect 98 0 154 0;
#X connect 99 0 154 1;
#X connect 99 0 162 0;
#X connect 100 0 145 0;
#X connect 101 0 145 0;
#X connect 102 0 145 0;
#X connect 103 0 145 0;
#X connect 104 0 107 0;
#X connect 105 0 106 0;
#X connect 106 0 107 0;
#X connect 109 0 173 0;
#X connect 110 0 6 0;
#X connect 111 0 112 0;
#X connect 112 0 106 0;
#X connect 113 0 111 0;
#X connect 114 0 113 0;
#X connect 115 0 113 0;
#X connect 116 0 114 0;
#X connect 117 0 115 0;
#X connect 118 0 85 0;
#X connect 119 0 145 0;
#X connect 121 0 32 0;
#X connect 121 0 164 0;
#X connect 123 0 109 0;
#X connect 128 0 81 0;
#X connect 129 0 83 0;
#X connect 130 0 172 0;
#X connect 131 0 107 0;
#X connect 137 0 138 1;
#X connect 137 0 121 0;
#X connect 138 0 137 0;
#X connect 139 0 138 0;
#X connect 143 0 144 0;
#X connect 144 0 140 0;
#X connect 144 1 141 0;
#X connect 144 2 142 0;
#X connect 147 0 148 1;
#X connect 147 0 163 0;
#X connect 148 0 147 0;
#X connect 150 0 170 0;
#X connect 151 0 94 0;
#X connect 153 0 73 0;
#X connect 154 0 99 0;
#X connect 156 0 89 0;
#X connect 157 0 82 0;
#X connect 158 0 84 0;
#X connect 160 0 88 0;
#X connect 161 0 68 0;
#X connect 162 0 155 0;
#X connect 163 1 92 0;
#X connect 164 0 174 0;
#X connect 165 0 148 0;
#X connect 166 0 151 0;
#X connect 167 0 37 0;
#X connect 167 0 175 0;
#X connect 168 0 153 0;
#X connect 169 0 78 0;
#X connect 170 0 104 0;
#X connect 171 0 130 0;
#X connect 172 0 131 0;
#X connect 173 0 91 0;
#X connect 174 0 66 0;
#X connect 175 0 70 0;
#X coords 0 0 1 1 85 60 0;
