#N canvas 452 128 888 612 10;
#X obj 280 13 cnv 15 40 40 empty empty empty 20 12 0 14 -233017 -66577
0;
#X text 284 23 LAMP1;
#X obj 499 12 cnv 15 40 40 empty empty empty 20 12 0 14 -233017 -66577
0;
#X text 503 23 LAMP2;
#X obj 27 23 print all;
#X obj 10 50 cnv 15 150 50 empty empty empty 20 12 0 14 -233017 -66577
0;
#X obj 16 55 OSCroute /sms;
#X obj 16 79 change;
#X obj 16 107 s sms;
#X obj 62 80 +;
#X floatatom 91 80 5 0 0 0 - - -;
#X obj 11 137 cnv 15 150 50 empty empty empty 20 12 0 14 -233017 -66577
0;
#X obj 10 242 cnv 15 150 50 empty empty empty 20 12 0 14 -233017 -66577
0;
#X obj 10 375 cnv 15 150 50 empty empty empty 20 12 0 14 -233017 -66577
0;
#X obj 16 142 OSCroute /conversation;
#X obj 16 251 OSCroute /data;
#X obj 16 384 OSCroute /signal;
#X obj 16 163 +;
#X floatatom 46 163 5 0 0 0 - - -;
#X msg 772 164 open 0;
#X msg 762 137 close;
#X obj 714 148 r RGBW;
#X obj 46 185 / 60;
#X obj 46 208 s conv;
#X floatatom 43 272 8 0 0 0 - - -;
#X obj 43 297 / 1000;
#X obj 43 319 s data;
#X obj 16 272 +;
#X obj 727 3 loadbang;
#X obj 549 43 r maxi;
#X obj 331 114 r maxi;
#N canvas 324 522 450 300 green2 0;
#N canvas 116 155 450 300 slider-inverter 0;
#X obj 125 99 mod 2;
#X floatatom 125 120 5 0 0 0 - - -;
#X obj 202 120 -;
#X obj 92 143 spigot;
#X obj 158 195 hsl 128 15 0 255 0 0 empty empty empty -2 -8 0 10 -262144
-1 -1 0 1;
#X msg 235 99 1;
#X obj 235 120 -;
#X obj 202 143 spigot;
#X obj 140 22 inlet;
#X obj 155 277 outlet;
#X floatatom 90 175 5 0 0 0 - - -;
#X floatatom 209 171 5 0 0 0 - - -;
#X obj 155 252 line 0;
#X msg 155 227 \$1 2000;
#X obj 125 65 / 255;
#X obj 166 65 mod 255;
#X msg 202 89 255;
#X connect 0 0 1 0;
#X connect 1 0 3 1;
#X connect 1 0 6 1;
#X connect 1 0 5 0;
#X connect 2 0 7 0;
#X connect 3 0 4 0;
#X connect 3 0 10 0;
#X connect 4 0 13 0;
#X connect 5 0 6 0;
#X connect 6 0 7 1;
#X connect 7 0 4 0;
#X connect 7 0 11 0;
#X connect 8 0 14 0;
#X connect 8 0 15 0;
#X connect 12 0 9 0;
#X connect 13 0 12 0;
#X connect 14 0 0 0;
#X connect 15 0 2 1;
#X connect 15 0 3 0;
#X connect 15 0 16 0;
#X connect 16 0 2 0;
#X restore 68 8 pd slider-inverter;
#X obj 71 38 hsl 128 15 0 255 0 0 empty empty empty -2 -8 0 10 -4034
-1 -1 0 1;
#X floatatom 15 71 5 0 0 0 - - -;
#X obj 68 69 int;
#X obj 68 128 s RGBW;
#X obj 68 -18 inlet;
#X obj 24 107 outlet;
#X msg 72 93 print 10c\$1w;
#X connect 0 0 1 0;
#X connect 1 0 3 0;
#X connect 3 0 7 0;
#X connect 3 0 2 0;
#X connect 3 0 6 0;
#X connect 5 0 0 0;
#X connect 7 0 4 0;
#X coords 0 -1 1 1 150 30 2 60 30;
#X restore 549 138 pd green2;
#N canvas 738 287 450 300 red1 0;
#N canvas 116 155 450 300 slider-inverter 0;
#X obj 125 99 mod 2;
#X floatatom 125 120 5 0 0 0 - - -;
#X obj 202 120 -;
#X obj 92 143 spigot;
#X obj 158 195 hsl 128 15 0 255 0 0 empty empty empty -2 -8 0 10 -262144
-1 -1 2590 1;
#X msg 235 99 1;
#X obj 235 120 -;
#X obj 202 143 spigot;
#X obj 140 -7 inlet;
#X obj 178 257 outlet;
#X floatatom 90 175 5 0 0 0 - - -;
#X floatatom 209 171 5 0 0 0 - - -;
#X floatatom 70 30 8 0 0 0 - - -;
#X obj 178 236 line 0;
#X msg 178 214 \$1 2000;
#X obj 125 65 / 255;
#X obj 172 64 mod 255;
#X msg 202 89 255;
#X floatatom 196 31 5 0 0 0 - - -;
#X connect 0 0 1 0;
#X connect 1 0 3 1;
#X connect 1 0 6 1;
#X connect 1 0 5 0;
#X connect 2 0 7 0;
#X connect 3 0 4 0;
#X connect 3 0 10 0;
#X connect 4 0 14 0;
#X connect 5 0 6 0;
#X connect 6 0 7 1;
#X connect 7 0 4 0;
#X connect 7 0 11 0;
#X connect 8 0 12 0;
#X connect 8 0 15 0;
#X connect 8 0 16 0;
#X connect 13 0 9 0;
#X connect 14 0 13 0;
#X connect 15 0 0 0;
#X connect 16 0 2 1;
#X connect 16 0 3 0;
#X connect 16 0 17 0;
#X connect 17 0 2 0;
#X connect 18 0 15 0;
#X connect 18 0 16 0;
#X restore 78 18 pd slider-inverter;
#X obj 81 48 hsl 128 15 0 255 0 0 empty empty empty -2 -8 0 10 -258113
-1 -1 2590 1;
#X obj 78 79 int;
#X obj 78 138 s RGBW;
#X obj 78 -8 inlet;
#X msg 78 102 print 1c\$1w;
#X floatatom 20 95 5 0 0 0 - - -;
#X obj 21 119 outlet;
#X connect 0 0 1 0;
#X connect 1 0 2 0;
#X connect 2 0 5 0;
#X connect 2 0 6 0;
#X connect 2 0 7 0;
#X connect 4 0 0 0;
#X connect 5 0 3 0;
#X coords 0 -1 1 1 150 30 2 70 40;
#X restore 331 68 pd red1;
#X floatatom 107 164 7 0 0 0 - - -;
#X floatatom 109 272 7 0 0 0 - - -;
#X text 80 186 MINUTES;
#X text 86 298 BYTES;
#N canvas 1313 294 450 300 red2 0;
#X obj 60 47 hsl 128 15 0 255 0 0 empty empty empty -2 -8 0 10 -258113
-1 -1 12700 1;
#X obj 57 78 int;
#X obj 57 137 s RGBW;
#X msg 57 101 print 9c\$1w;
#X obj 61 3 inlet;
#X floatatom 10 105 5 0 0 0 - - -;
#X connect 0 0 1 0;
#X connect 1 0 3 0;
#X connect 1 0 5 0;
#X connect 3 0 2 0;
#X connect 4 0 0 0;
#X coords 0 -1 1 1 150 30 2 50 40;
#X restore 549 68 pd red2;
#N canvas 1074 375 450 300 green1 0;
#X obj 62 48 hsl 128 15 0 255 0 0 empty empty empty -2 -8 0 10 -4034
-1 -1 12700 1;
#X obj 59 79 int;
#X obj 59 138 s RGBW;
#X obj 63 4 inlet;
#X floatatom 12 106 5 0 0 0 - - -;
#X msg 59 102 print 2c\$1w;
#X connect 0 0 1 0;
#X connect 1 0 5 0;
#X connect 1 0 4 0;
#X connect 3 0 0 0;
#X connect 5 0 2 0;
#X coords 0 -1 1 1 150 30 2 50 40;
#X restore 331 138 pd green1;
#N canvas 980 665 450 300 blue1 0;
#N canvas 116 155 450 300 slider-inverter 0;
#X obj 125 99 mod 2;
#X floatatom 125 120 5 0 0 0 - - -;
#X obj 202 120 -;
#X obj 92 143 spigot;
#X obj 158 195 hsl 128 15 0 255 0 0 empty empty empty -2 -8 0 10 -262144
-1 -1 0 1;
#X msg 235 99 1;
#X obj 235 120 -;
#X obj 202 143 spigot;
#X obj 140 22 inlet;
#X obj 155 277 outlet;
#X floatatom 90 175 5 0 0 0 - - -;
#X floatatom 209 171 5 0 0 0 - - -;
#X obj 155 252 line 0;
#X msg 155 227 \$1 2000;
#X obj 125 65 / 255;
#X obj 171 65 mod 255;
#X msg 202 89 255;
#X connect 0 0 1 0;
#X connect 1 0 3 1;
#X connect 1 0 6 1;
#X connect 1 0 5 0;
#X connect 2 0 7 0;
#X connect 3 0 4 0;
#X connect 3 0 10 0;
#X connect 4 0 13 0;
#X connect 5 0 6 0;
#X connect 6 0 7 1;
#X connect 7 0 4 0;
#X connect 7 0 11 0;
#X connect 8 0 14 0;
#X connect 8 0 15 0;
#X connect 12 0 9 0;
#X connect 13 0 12 0;
#X connect 14 0 0 0;
#X connect 15 0 2 1;
#X connect 15 0 3 0;
#X connect 15 0 16 0;
#X connect 16 0 2 0;
#X restore 110 14 pd slider-inverter;
#X obj 62 48 hsl 128 15 0 255 0 0 empty empty empty -2 -8 0 10 -4160
-1 -1 0 1;
#X floatatom 6 81 5 0 0 0 - - -;
#X obj 59 79 int;
#X obj 59 138 s RGBW;
#X obj 59 -8 inlet;
#X obj 15 117 outlet;
#X msg 59 102 print 3c\$1w;
#X connect 1 0 3 0;
#X connect 3 0 7 0;
#X connect 3 0 2 0;
#X connect 3 0 6 0;
#X connect 5 0 1 0;
#X connect 7 0 4 0;
#X coords 0 -1 1 1 150 30 2 50 40;
#X restore 331 208 pd blue1;
#N canvas 1218 450 450 300 blue2 0;
#N canvas 116 155 450 300 slider-inverter 0;
#X obj 125 99 mod 2;
#X floatatom 125 120 5 0 0 0 - - -;
#X obj 202 120 -;
#X obj 92 143 spigot;
#X obj 158 195 hsl 128 15 0 255 0 0 empty empty empty -2 -8 0 10 -262144
-1 -1 12700 1;
#X msg 235 99 1;
#X obj 235 120 -;
#X obj 202 143 spigot;
#X obj 140 22 inlet;
#X obj 155 277 outlet;
#X floatatom 90 175 5 0 0 0 - - -;
#X floatatom 209 171 5 0 0 0 - - -;
#X obj 155 252 line 0;
#X msg 155 227 \$1 2000;
#X obj 125 65 / 255;
#X obj 175 62 mod 255;
#X msg 202 89 255;
#X connect 0 0 1 0;
#X connect 1 0 3 1;
#X connect 1 0 6 1;
#X connect 1 0 5 0;
#X connect 2 0 7 0;
#X connect 3 0 4 0;
#X connect 3 0 10 0;
#X connect 4 0 13 0;
#X connect 5 0 6 0;
#X connect 6 0 7 1;
#X connect 7 0 4 0;
#X connect 7 0 11 0;
#X connect 8 0 14 0;
#X connect 8 0 15 0;
#X connect 12 0 9 0;
#X connect 13 0 12 0;
#X connect 14 0 0 0;
#X connect 15 0 2 1;
#X connect 15 0 3 0;
#X connect 15 0 16 0;
#X connect 16 0 2 0;
#X restore 59 17 pd slider-inverter;
#X obj 62 47 hsl 128 15 0 255 0 0 empty empty empty -2 -8 0 10 -4160
-1 -1 12700 1;
#X floatatom 6 80 5 0 0 0 - - -;
#X obj 59 78 int;
#X obj 59 137 s RGBW;
#X obj 59 -9 inlet;
#X obj 15 116 outlet;
#X msg 59 101 print 11c\$1w;
#X connect 0 0 1 0;
#X connect 1 0 3 0;
#X connect 3 0 7 0;
#X connect 3 0 2 0;
#X connect 3 0 6 0;
#X connect 5 0 0 0;
#X connect 7 0 4 0;
#X coords 0 -1 1 1 150 30 2 50 40;
#X restore 549 208 pd blue2;
#N canvas 913 440 450 300 dimmer2 0;
#N canvas 116 155 450 300 slider-inverter 0;
#X obj 125 99 mod 2;
#X floatatom 125 120 5 0 0 0 - - -;
#X obj 202 120 -;
#X obj 92 143 spigot;
#X obj 158 195 hsl 128 15 0 255 0 0 empty empty empty -2 -8 0 10 -262144
-1 -1 0 1;
#X msg 235 99 1;
#X obj 235 120 -;
#X obj 202 143 spigot;
#X obj 140 22 inlet;
#X obj 155 277 outlet;
#X floatatom 90 175 5 0 0 0 - - -;
#X floatatom 209 171 5 0 0 0 - - -;
#X obj 155 252 line 0;
#X msg 155 227 \$1 2000;
#X obj 125 65 / 255;
#X obj 167 65 mod 255;
#X msg 202 89 255;
#X connect 0 0 1 0;
#X connect 1 0 3 1;
#X connect 1 0 6 1;
#X connect 1 0 5 0;
#X connect 2 0 7 0;
#X connect 3 0 4 0;
#X connect 3 0 10 0;
#X connect 4 0 13 0;
#X connect 5 0 6 0;
#X connect 6 0 7 1;
#X connect 7 0 4 0;
#X connect 7 0 11 0;
#X connect 8 0 14 0;
#X connect 8 0 15 0;
#X connect 12 0 9 0;
#X connect 13 0 12 0;
#X connect 14 0 0 0;
#X connect 15 0 2 1;
#X connect 15 0 3 0;
#X connect 15 0 16 0;
#X connect 16 0 2 0;
#X restore 172 15 pd slider-inverter;
#X obj 62 48 hsl 128 15 0 255 0 0 empty empty empty -2 -8 0 10 -66577
-1 -1 3774 1;
#X floatatom 6 81 5 0 0 0 - - -;
#X obj 59 79 int;
#X obj 59 138 s RGBW;
#X obj 59 -8 inlet;
#X obj 15 117 outlet;
#X msg 59 102 print 12c\$1w;
#X obj 99 18 line 0;
#X msg 99 -7 \$1 2000;
#X connect 1 0 3 0;
#X connect 3 0 7 0;
#X connect 3 0 2 0;
#X connect 3 0 6 0;
#X connect 5 0 9 0;
#X connect 7 0 4 0;
#X connect 8 0 1 0;
#X connect 9 0 8 0;
#X coords 0 -1 1 1 150 30 2 50 40;
#X restore 549 278 pd dimmer2;
#N canvas 913 440 450 300 dimmer1 0;
#N canvas 116 155 450 300 slider-inverter 0;
#X obj 125 65 / 25;
#X obj 159 65 mod 25;
#X obj 125 99 mod 2;
#X floatatom 125 120 5 0 0 0 - - -;
#X msg 202 89 25;
#X obj 202 120 -;
#X obj 92 143 spigot;
#X obj 158 195 hsl 128 15 0 25 0 0 empty empty empty -2 -8 0 10 -262144
-1 -1 0 1;
#X msg 235 99 1;
#X obj 235 120 -;
#X obj 202 143 spigot;
#X obj 140 22 inlet;
#X obj 155 277 outlet;
#X floatatom 90 175 5 0 0 0 - - -;
#X floatatom 209 171 5 0 0 0 - - -;
#X obj 155 252 line 0;
#X msg 155 227 \$1 2000;
#X connect 0 0 2 0;
#X connect 1 0 5 1;
#X connect 1 0 6 0;
#X connect 1 0 4 0;
#X connect 2 0 3 0;
#X connect 3 0 6 1;
#X connect 3 0 9 1;
#X connect 3 0 8 0;
#X connect 4 0 5 0;
#X connect 5 0 10 0;
#X connect 6 0 7 0;
#X connect 6 0 13 0;
#X connect 7 0 16 0;
#X connect 8 0 9 0;
#X connect 9 0 10 1;
#X connect 10 0 7 0;
#X connect 10 0 14 0;
#X connect 11 0 0 0;
#X connect 11 0 1 0;
#X connect 15 0 12 0;
#X connect 16 0 15 0;
#X restore 170 18 pd slider-inverter;
#X obj 62 48 hsl 128 15 0 255 0 0 empty empty empty -2 -8 0 10 -66577
-1 -1 3774 1;
#X floatatom 6 81 5 0 0 0 - - -;
#X obj 59 79 int;
#X obj 59 138 s RGBW;
#X obj 59 -8 inlet;
#X obj 15 117 outlet;
#X msg 59 102 print 4c\$1w;
#X obj 100 16 line 0;
#X msg 100 -9 \$1 2000;
#X connect 1 0 3 0;
#X connect 3 0 7 0;
#X connect 3 0 2 0;
#X connect 3 0 6 0;
#X connect 5 0 9 0;
#X connect 7 0 4 0;
#X connect 8 0 1 0;
#X connect 9 0 8 0;
#X coords 0 -1 1 1 150 30 2 50 40;
#X restore 331 278 pd dimmer1;
#X obj 331 41 r data;
#X obj 16 405 +;
#X floatatom 42 406 5 0 0 0 - - -;
#N canvas 1024 602 450 300 temperature2 0;
#N canvas 116 155 450 300 slider-inverter 0;
#X obj 125 99 mod 2;
#X floatatom 125 120 5 0 0 0 - - -;
#X obj 202 120 -;
#X obj 92 143 spigot;
#X obj 158 195 hsl 128 15 0 255 0 0 empty empty empty -2 -8 0 10 -262144
-1 -1 2590 1;
#X msg 235 99 1;
#X obj 235 120 -;
#X obj 202 143 spigot;
#X obj 140 22 inlet;
#X obj 155 277 outlet;
#X floatatom 90 175 5 0 0 0 - - -;
#X floatatom 209 171 5 0 0 0 - - -;
#X obj 155 252 line 0;
#X msg 155 227 \$1 2000;
#X obj 125 65 / 255;
#X obj 167 65 mod 255;
#X msg 202 89 255;
#X connect 0 0 1 0;
#X connect 1 0 3 1;
#X connect 1 0 6 1;
#X connect 1 0 5 0;
#X connect 2 0 7 0;
#X connect 3 0 4 0;
#X connect 3 0 10 0;
#X connect 4 0 13 0;
#X connect 5 0 6 0;
#X connect 6 0 7 1;
#X connect 7 0 4 0;
#X connect 7 0 11 0;
#X connect 8 0 14 0;
#X connect 8 0 15 0;
#X connect 12 0 9 0;
#X connect 13 0 12 0;
#X connect 14 0 0 0;
#X connect 15 0 2 1;
#X connect 15 0 3 0;
#X connect 15 0 16 0;
#X connect 16 0 2 0;
#X restore 59 16 pd slider-inverter;
#X obj 62 48 hsl 128 15 0 255 0 0 empty empty empty -2 -8 0 10 -262130
-1 -1 2590 1;
#X floatatom 6 81 5 0 0 0 - - -;
#X obj 59 79 int;
#X obj 59 138 s RGBW;
#X obj 59 -8 inlet;
#X obj 15 117 outlet;
#X msg 59 102 print 13c\$1w;
#X connect 0 0 1 0;
#X connect 1 0 3 0;
#X connect 3 0 7 0;
#X connect 3 0 2 0;
#X connect 3 0 6 0;
#X connect 5 0 0 0;
#X connect 7 0 4 0;
#X coords 0 -1 1 1 150 30 2 50 40;
#X restore 549 348 pd temperature2;
#N canvas 939 662 450 300 temperature1 0;
#N canvas 116 155 450 300 slider-inverter 0;
#X obj 125 99 mod 2;
#X floatatom 125 120 5 0 0 0 - - -;
#X obj 202 120 -;
#X obj 92 143 spigot;
#X obj 158 195 hsl 128 15 0 255 0 0 empty empty empty -2 -8 0 10 -262144
-1 -1 12700 1;
#X msg 235 99 1;
#X obj 235 120 -;
#X obj 202 143 spigot;
#X obj 140 22 inlet;
#X obj 155 277 outlet;
#X floatatom 90 175 5 0 0 0 - - -;
#X floatatom 209 171 5 0 0 0 - - -;
#X obj 155 252 line 0;
#X msg 155 227 \$1 2000;
#X obj 125 65 / 255;
#X obj 166 65 mod 255;
#X msg 202 89 255;
#X connect 0 0 1 0;
#X connect 1 0 3 1;
#X connect 1 0 6 1;
#X connect 1 0 5 0;
#X connect 2 0 7 0;
#X connect 3 0 4 0;
#X connect 3 0 10 0;
#X connect 4 0 13 0;
#X connect 5 0 6 0;
#X connect 6 0 7 1;
#X connect 7 0 4 0;
#X connect 7 0 11 0;
#X connect 8 0 14 0;
#X connect 8 0 15 0;
#X connect 12 0 9 0;
#X connect 13 0 12 0;
#X connect 14 0 0 0;
#X connect 15 0 2 1;
#X connect 15 0 3 0;
#X connect 15 0 16 0;
#X connect 16 0 2 0;
#X restore 59 19 pd slider-inverter;
#X obj 62 48 hsl 128 15 0 255 0 0 empty empty empty -2 -8 0 10 -262130
-1 -1 12700 1;
#X floatatom 6 81 5 0 0 0 - - -;
#X obj 59 79 int;
#X obj 59 138 s RGBW;
#X obj 59 -8 inlet;
#X obj 15 117 outlet;
#X msg 59 102 print 5c\$1w;
#X connect 0 0 1 0;
#X connect 1 0 3 0;
#X connect 3 0 7 0;
#X connect 3 0 2 0;
#X connect 3 0 6 0;
#X connect 5 0 0 0;
#X connect 7 0 4 0;
#X coords 0 -1 1 1 150 30 2 50 40;
#X restore 331 348 pd temperature1;
#N canvas 939 662 450 300 strobe_freq1 0;
#N canvas 116 155 450 300 slider-inverter 0;
#X obj 125 99 mod 2;
#X floatatom 125 120 5 0 0 0 - - -;
#X obj 202 120 -;
#X obj 92 143 spigot;
#X obj 158 195 hsl 128 15 0 255 0 0 empty empty empty -2 -8 0 10 -262144
-1 -1 8965 1;
#X msg 235 99 1;
#X obj 235 120 -;
#X obj 202 143 spigot;
#X obj 140 22 inlet;
#X obj 155 277 outlet;
#X floatatom 90 175 5 0 0 0 - - -;
#X floatatom 209 171 5 0 0 0 - - -;
#X obj 155 252 line 0;
#X msg 155 227 \$1 2000;
#X obj 125 65 / 255;
#X obj 166 65 mod 255;
#X msg 202 89 255;
#X connect 0 0 1 0;
#X connect 1 0 3 1;
#X connect 1 0 6 1;
#X connect 1 0 5 0;
#X connect 2 0 7 0;
#X connect 3 0 4 0;
#X connect 3 0 10 0;
#X connect 4 0 13 0;
#X connect 5 0 6 0;
#X connect 6 0 7 1;
#X connect 7 0 4 0;
#X connect 7 0 11 0;
#X connect 8 0 14 0;
#X connect 8 0 15 0;
#X connect 12 0 9 0;
#X connect 13 0 12 0;
#X connect 14 0 0 0;
#X connect 15 0 2 1;
#X connect 15 0 3 0;
#X connect 15 0 16 0;
#X connect 16 0 2 0;
#X restore 59 19 pd slider-inverter;
#X obj 62 48 hsl 128 15 0 255 0 0 empty empty empty -2 -8 0 10 -228856
-1 -1 8965 1;
#X floatatom 6 81 5 0 0 0 - - -;
#X obj 59 79 int;
#X obj 59 138 s RGBW;
#X obj 59 -8 inlet;
#X obj 15 117 outlet;
#X msg 59 102 print 6c\$1w;
#X connect 0 0 1 0;
#X connect 1 0 3 0;
#X connect 3 0 7 0;
#X connect 3 0 2 0;
#X connect 3 0 6 0;
#X connect 5 0 0 0;
#X connect 7 0 4 0;
#X coords 0 -1 1 1 150 30 2 50 40;
#X restore 331 408 pd strobe_freq1;
#N canvas 1024 602 450 300 strobe_freq2 0;
#N canvas 116 155 450 300 slider-inverter 0;
#X obj 125 99 mod 2;
#X floatatom 125 120 5 0 0 0 - - -;
#X obj 202 120 -;
#X obj 92 143 spigot;
#X obj 158 195 hsl 128 15 0 255 0 0 empty empty empty -2 -8 0 10 -262144
-1 -1 0 1;
#X msg 235 99 1;
#X obj 235 120 -;
#X obj 202 143 spigot;
#X obj 140 22 inlet;
#X obj 155 277 outlet;
#X floatatom 90 175 5 0 0 0 - - -;
#X floatatom 209 171 5 0 0 0 - - -;
#X obj 155 252 line 0;
#X msg 155 227 \$1 2000;
#X obj 125 65 / 255;
#X obj 167 65 mod 255;
#X msg 202 89 255;
#X connect 0 0 1 0;
#X connect 1 0 3 1;
#X connect 1 0 6 1;
#X connect 1 0 5 0;
#X connect 2 0 7 0;
#X connect 3 0 4 0;
#X connect 3 0 10 0;
#X connect 4 0 13 0;
#X connect 5 0 6 0;
#X connect 6 0 7 1;
#X connect 7 0 4 0;
#X connect 7 0 11 0;
#X connect 8 0 14 0;
#X connect 8 0 15 0;
#X connect 12 0 9 0;
#X connect 13 0 12 0;
#X connect 14 0 0 0;
#X connect 15 0 2 1;
#X connect 15 0 3 0;
#X connect 15 0 16 0;
#X connect 16 0 2 0;
#X restore 59 16 pd slider-inverter;
#X obj 62 48 hsl 128 15 0 255 0 0 empty empty empty -2 -8 0 10 -228856
-1 -1 0 1;
#X floatatom 6 81 5 0 0 0 - - -;
#X obj 59 79 int;
#X obj 59 138 s RGBW;
#X obj 59 -8 inlet;
#X obj 15 117 outlet;
#X msg 59 102 print 14c\$1w;
#X connect 0 0 1 0;
#X connect 1 0 3 0;
#X connect 3 0 7 0;
#X connect 3 0 2 0;
#X connect 3 0 6 0;
#X connect 5 0 0 0;
#X connect 7 0 4 0;
#X coords 0 -1 1 1 150 30 2 50 40;
#X restore 549 408 pd strobe_freq2;
#N canvas 939 662 450 300 strobe_dur1 0;
#N canvas 116 155 450 300 slider-inverter 0;
#X obj 125 99 mod 2;
#X floatatom 125 120 5 0 0 0 - - -;
#X obj 202 120 -;
#X obj 92 143 spigot;
#X obj 158 195 hsl 128 15 0 255 0 0 empty empty empty -2 -8 0 10 -262144
-1 -1 8965 1;
#X msg 235 99 1;
#X obj 235 120 -;
#X obj 202 143 spigot;
#X obj 140 22 inlet;
#X obj 155 277 outlet;
#X floatatom 90 175 5 0 0 0 - - -;
#X floatatom 209 171 5 0 0 0 - - -;
#X obj 155 252 line 0;
#X msg 155 227 \$1 2000;
#X obj 125 65 / 255;
#X obj 166 65 mod 255;
#X msg 202 89 255;
#X connect 0 0 1 0;
#X connect 1 0 3 1;
#X connect 1 0 6 1;
#X connect 1 0 5 0;
#X connect 2 0 7 0;
#X connect 3 0 4 0;
#X connect 3 0 10 0;
#X connect 4 0 13 0;
#X connect 5 0 6 0;
#X connect 6 0 7 1;
#X connect 7 0 4 0;
#X connect 7 0 11 0;
#X connect 8 0 14 0;
#X connect 8 0 15 0;
#X connect 12 0 9 0;
#X connect 13 0 12 0;
#X connect 14 0 0 0;
#X connect 15 0 2 1;
#X connect 15 0 3 0;
#X connect 15 0 16 0;
#X connect 16 0 2 0;
#X restore 59 19 pd slider-inverter;
#X obj 62 48 hsl 128 15 0 255 0 0 empty empty empty -2 -8 0 10 -228856
-1 -1 8965 1;
#X floatatom 6 81 5 0 0 0 - - -;
#X obj 59 79 int;
#X obj 59 138 s RGBW;
#X obj 59 -8 inlet;
#X obj 15 117 outlet;
#X msg 59 102 print 7c\$1w;
#X connect 0 0 1 0;
#X connect 1 0 3 0;
#X connect 3 0 7 0;
#X connect 3 0 2 0;
#X connect 3 0 6 0;
#X connect 5 0 0 0;
#X connect 7 0 4 0;
#X coords 0 -1 1 1 150 30 2 50 40;
#X restore 331 468 pd strobe_dur1;
#N canvas 1024 602 450 300 strobe_dur2 0;
#N canvas 116 155 450 300 slider-inverter 0;
#X obj 125 99 mod 2;
#X floatatom 125 120 5 0 0 0 - - -;
#X obj 202 120 -;
#X obj 92 143 spigot;
#X obj 158 195 hsl 128 15 0 255 0 0 empty empty empty -2 -8 0 10 -262144
-1 -1 0 1;
#X msg 235 99 1;
#X obj 235 120 -;
#X obj 202 143 spigot;
#X obj 140 22 inlet;
#X obj 155 277 outlet;
#X floatatom 90 175 5 0 0 0 - - -;
#X floatatom 209 171 5 0 0 0 - - -;
#X obj 155 252 line 0;
#X msg 155 227 \$1 2000;
#X obj 125 65 / 255;
#X obj 167 65 mod 255;
#X msg 202 89 255;
#X connect 0 0 1 0;
#X connect 1 0 3 1;
#X connect 1 0 6 1;
#X connect 1 0 5 0;
#X connect 2 0 7 0;
#X connect 3 0 4 0;
#X connect 3 0 10 0;
#X connect 4 0 13 0;
#X connect 5 0 6 0;
#X connect 6 0 7 1;
#X connect 7 0 4 0;
#X connect 7 0 11 0;
#X connect 8 0 14 0;
#X connect 8 0 15 0;
#X connect 12 0 9 0;
#X connect 13 0 12 0;
#X connect 14 0 0 0;
#X connect 15 0 2 1;
#X connect 15 0 3 0;
#X connect 15 0 16 0;
#X connect 16 0 2 0;
#X restore 59 16 pd slider-inverter;
#X obj 62 48 hsl 128 15 0 255 0 0 empty empty empty -2 -8 0 10 -228856
-1 -1 0 1;
#X floatatom 6 81 5 0 0 0 - - -;
#X obj 59 79 int;
#X obj 59 138 s RGBW;
#X obj 59 -8 inlet;
#X obj 15 117 outlet;
#X msg 59 102 print 15c\$1w;
#X connect 0 0 1 0;
#X connect 1 0 3 0;
#X connect 3 0 7 0;
#X connect 3 0 2 0;
#X connect 3 0 6 0;
#X connect 5 0 0 0;
#X connect 7 0 4 0;
#X coords 0 -1 1 1 150 30 2 50 40;
#X restore 549 468 pd strobe_dur2;
#N canvas 939 662 450 300 strobe_effect1 0;
#N canvas 116 155 450 300 slider-inverter 0;
#X obj 125 99 mod 2;
#X floatatom 125 120 5 0 0 0 - - -;
#X obj 202 120 -;
#X obj 92 143 spigot;
#X obj 158 195 hsl 128 15 0 255 0 0 empty empty empty -2 -8 0 10 -262144
-1 -1 8965 1;
#X msg 235 99 1;
#X obj 235 120 -;
#X obj 202 143 spigot;
#X obj 140 22 inlet;
#X obj 155 277 outlet;
#X floatatom 90 175 5 0 0 0 - - -;
#X floatatom 209 171 5 0 0 0 - - -;
#X obj 155 252 line 0;
#X msg 155 227 \$1 2000;
#X obj 125 65 / 255;
#X obj 166 65 mod 255;
#X msg 202 89 255;
#X connect 0 0 1 0;
#X connect 1 0 3 1;
#X connect 1 0 6 1;
#X connect 1 0 5 0;
#X connect 2 0 7 0;
#X connect 3 0 4 0;
#X connect 3 0 10 0;
#X connect 4 0 13 0;
#X connect 5 0 6 0;
#X connect 6 0 7 1;
#X connect 7 0 4 0;
#X connect 7 0 11 0;
#X connect 8 0 14 0;
#X connect 8 0 15 0;
#X connect 12 0 9 0;
#X connect 13 0 12 0;
#X connect 14 0 0 0;
#X connect 15 0 2 1;
#X connect 15 0 3 0;
#X connect 15 0 16 0;
#X connect 16 0 2 0;
#X restore 59 19 pd slider-inverter;
#X obj 62 48 hsl 128 15 0 255 0 0 empty empty empty -2 -8 0 10 -228856
-1 -1 8965 1;
#X floatatom 6 81 5 0 0 0 - - -;
#X obj 59 79 int;
#X obj 59 138 s RGBW;
#X obj 59 -8 inlet;
#X obj 15 117 outlet;
#X msg 59 102 print 8c\$1w;
#X connect 0 0 1 0;
#X connect 1 0 3 0;
#X connect 3 0 7 0;
#X connect 3 0 2 0;
#X connect 3 0 6 0;
#X connect 5 0 0 0;
#X connect 7 0 4 0;
#X coords 0 -1 1 1 150 30 2 50 40;
#X restore 331 528 pd strobe_effect1;
#N canvas 1024 602 450 300 strobe_effect2 0;
#N canvas 116 155 450 300 slider-inverter 0;
#X obj 125 99 mod 2;
#X floatatom 125 120 5 0 0 0 - - -;
#X obj 202 120 -;
#X obj 92 143 spigot;
#X obj 158 195 hsl 128 15 0 255 0 0 empty empty empty -2 -8 0 10 -262144
-1 -1 0 1;
#X msg 235 99 1;
#X obj 235 120 -;
#X obj 202 143 spigot;
#X obj 140 22 inlet;
#X obj 155 277 outlet;
#X floatatom 90 175 5 0 0 0 - - -;
#X floatatom 209 171 5 0 0 0 - - -;
#X obj 155 252 line 0;
#X msg 155 227 \$1 2000;
#X obj 125 65 / 255;
#X obj 167 65 mod 255;
#X msg 202 89 255;
#X connect 0 0 1 0;
#X connect 1 0 3 1;
#X connect 1 0 6 1;
#X connect 1 0 5 0;
#X connect 2 0 7 0;
#X connect 3 0 4 0;
#X connect 3 0 10 0;
#X connect 4 0 13 0;
#X connect 5 0 6 0;
#X connect 6 0 7 1;
#X connect 7 0 4 0;
#X connect 7 0 11 0;
#X connect 8 0 14 0;
#X connect 8 0 15 0;
#X connect 12 0 9 0;
#X connect 13 0 12 0;
#X connect 14 0 0 0;
#X connect 15 0 2 1;
#X connect 15 0 3 0;
#X connect 15 0 16 0;
#X connect 16 0 2 0;
#X restore 59 16 pd slider-inverter;
#X obj 62 48 hsl 128 15 0 255 0 0 empty empty empty -2 -8 0 10 -228856
-1 -1 0 1;
#X floatatom 6 81 5 0 0 0 - - -;
#X obj 59 79 int;
#X obj 59 138 s RGBW;
#X obj 59 -8 inlet;
#X obj 15 117 outlet;
#X msg 59 102 print 16c\$1w;
#X connect 0 0 1 0;
#X connect 1 0 3 0;
#X connect 3 0 7 0;
#X connect 3 0 2 0;
#X connect 3 0 6 0;
#X connect 5 0 0 0;
#X connect 7 0 4 0;
#X coords 0 -1 1 1 150 30 2 50 40;
#X restore 549 528 pd strobe_effect2;
#X obj 549 182 r conv;
#X obj 11 432 maxlib/scale 0 32 180 255;
#X floatatom 11 455 5 0 0 0 - - -;
#X obj 46 455 s signal;
#X obj 331 256 r signal;
#X obj 549 257 r signal;
#X obj 549 327 r data;
#X obj 331 327 r conv;
#X obj 762 193 comport 0 115200;
#X obj 167 79 r sms;
#X obj 167 121 line;
#X floatatom 202 121 5 0 0 0 - - -;
#X msg 167 101 255 \, 0 2000;
#N canvas 913 380 450 300 on_start 0;
#X msg 101 -11 0 \, 255 2000;
#X obj 101 10 line;
#X obj 101 33 s maxi;
#X obj 26 10 line;
#X msg 26 -11 0 \, 220 2000;
#X obj 26 33 s signal;
#X obj 26 -47 inlet;
#X obj 101 -47 inlet;
#X connect 0 0 1 0;
#X connect 1 0 2 0;
#X connect 3 0 5 0;
#X connect 4 0 3 0;
#X connect 6 0 4 0;
#X connect 7 0 0 0;
#X restore 727 30 pd on_start;
#X text 546 23 CONVERSATION: RED > PURPLE;
#X text 328 23 DATA: GREEN > YELLOW;
#X obj 714 221 print RGBW;
#X obj 16 1 dumpOSC 50000;
#X text 116 -4 START THE .py LOG FILE;
#X text 116 13 LISTEN ON THE PORT 49999;
#X text 116 493 WATCH A YOUTUBE;
#X text 116 510 TAKE A PICTURE AND UPLOAD to TMBLR;
#X text 116 528 SEND SMSs;
#X connect 6 0 7 0;
#X connect 6 0 9 0;
#X connect 7 0 8 0;
#X connect 9 0 10 0;
#X connect 10 0 9 1;
#X connect 14 0 17 0;
#X connect 15 0 27 0;
#X connect 16 0 44 0;
#X connect 17 0 18 0;
#X connect 18 0 17 1;
#X connect 18 0 22 0;
#X connect 19 0 62 0;
#X connect 20 0 62 0;
#X connect 21 0 62 0;
#X connect 22 0 23 0;
#X connect 22 0 33 0;
#X connect 24 0 25 0;
#X connect 24 0 27 1;
#X connect 25 0 26 0;
#X connect 25 0 34 0;
#X connect 27 0 24 0;
#X connect 28 0 67 0;
#X connect 28 0 67 1;
#X connect 29 0 37 0;
#X connect 30 0 38 0;
#X connect 43 0 32 0;
#X connect 44 0 45 0;
#X connect 45 0 44 1;
#X connect 45 0 55 0;
#X connect 54 0 40 0;
#X connect 55 0 56 0;
#X connect 55 0 57 0;
#X connect 58 0 42 0;
#X connect 58 0 48 0;
#X connect 58 0 50 0;
#X connect 58 0 52 0;
#X connect 59 0 41 0;
#X connect 60 0 46 0;
#X connect 61 0 47 0;
#X connect 63 0 66 0;
#X connect 64 0 65 0;
#X connect 64 0 39 0;
#X connect 64 0 31 0;
#X connect 66 0 64 0;
#X connect 71 0 4 0;
#X connect 71 0 6 0;
#X connect 71 0 14 0;
#X connect 71 0 15 0;
#X connect 71 0 16 0;
