#N canvas 381 181 1482 653 10;
#X obj -111 -15 print osc;
#X obj 828 -21 cnv 15 60 22 empty empty empty 20 12 0 14 -253938 -66577
0;
#N canvas 146 163 525 433 serin 0;
#X obj 180 61 cnv 15 15 15 empty \$0-number-canvas 0 4 8 0 14 -233017
-1 0;
#X obj 200 225 s \$0-number-canvas;
#X obj 60 61 hradio 15 1 1 8 empty empty empty 0 -6 0 8 -225271 -1
-1 0;
#X obj 60 13 inlet;
#X msg 200 202 label \$1;
#X obj 200 180 makefilename %d;
#X obj 59 108 int;
#X msg 59 206 open \$1;
#X obj 59 377 outlet;
#X msg 201 306 set \$1 \$2;
#X obj 59 266 trigger bang anything;
#X obj 201 286 list;
#X obj 383 383 outlet;
#X obj 384 22 netreceive 34567;
#X obj 477 43 tgl 15 0 empty empty empty 0 -6 0 10 -262144 -1 -1 0
1;
#X obj 384 41 bng 15 250 50 0 empty empty empty 0 -6 0 10 -262144 -1
-1;
#X obj 187 24 delay 15000;
#X text 345 379 close;
#X text 209 4 for open/close automation in Makefile;
#X obj 184 95 bang;
#X obj 184 137 send ARDUINO_TEST_RESET;
#X msg 184 116 set 0;
#X connect 2 0 6 0;
#X connect 2 0 19 0;
#X connect 3 0 2 0;
#X connect 4 0 1 0;
#X connect 5 0 4 0;
#X connect 6 0 5 0;
#X connect 6 0 7 0;
#X connect 7 0 10 0;
#X connect 9 0 8 0;
#X connect 10 0 8 0;
#X connect 10 1 11 0;
#X connect 11 0 9 0;
#X connect 13 0 15 0;
#X connect 13 1 14 0;
#X connect 15 0 16 0;
#X connect 15 0 12 0;
#X connect 16 0 2 0;
#X connect 19 0 21 0;
#X connect 21 0 20 0;
#X coords 0 -1 1 1 136 17 1 60 60;
#X restore 829 1 pd serin;
#X text 829 -43 serial port #;
#X msg 891 -17 close;
#X msg 831 25 info;
#X obj 831 88 arduino 1;
#X msg 831 49 devices;
#X text 886 26 <-- get connection info;
#X text 886 47 <-- list available serial devices;
#X msg 831 -17 open 0;
#X obj -127 170 s conv;
#X obj -80 305 s data;
#X obj 772 23 r RGBW;
#X floatatom -136 270 8 0 0 0 - - -;
#X floatatom 64 403 5 0 0 0 - - -;
#X obj -97 91 +;
#X obj -136 249 +;
#X obj 36 402 +;
#X obj 159 499 s distance;
#X obj -80 249 change;
#X obj -141 16 cnv 15 150 55 empty empty empty 20 12 0 14 -233017 -66577
0;
#X obj -136 23 OSCroute /conversation;
#X floatatom -70 91 8 0 0 0 - - -;
#X obj -136 46 unpack f;
#X floatatom -79 47 5 0 0 0 - - -;
#X obj 32 16 cnv 15 150 55 empty empty empty 20 12 0 14 -233017 -66577
0;
#X obj 37 46 unpack f;
#X floatatom 94 47 5 0 0 0 - - -;
#X obj 37 23 OSCroute /sms;
#X obj 37 98 change;
#X obj 830 148 cnv 15 70 80 empty empty empty 20 12 0 14 -261234 -66577
0;
#X msg 841 180 0;
#X obj 780 189 s data;
#X obj 780 213 s conv;
#X obj 780 237 s sms;
#X obj 780 261 s distance;
#X obj 780 285 s signalz;
#X obj -141 190 cnv 15 150 55 empty empty empty 20 12 0 14 -233017
-66577 0;
#X obj -136 220 unpack f;
#X floatatom -79 221 5 0 0 0 - - -;
#X obj -136 197 OSCroute /data;
#X obj -141 344 cnv 15 150 55 empty empty empty 20 12 0 14 -233017
-66577 0;
#X obj -136 374 unpack f;
#X floatatom -79 375 5 0 0 0 - - -;
#X obj -136 351 OSCroute /signal;
#X obj 31 344 cnv 15 150 55 empty empty empty 20 12 0 14 -233017 -66577
0;
#X obj 36 374 unpack f;
#X floatatom 93 375 5 0 0 0 - - -;
#X obj 36 351 OSCroute /celldistance;
#X obj 156 375 bng 15 250 50 0 empty empty empty 17 7 0 10 -4032 -1
-1;
#X obj -27 47 bng 15 250 50 0 empty empty empty 17 7 0 10 -258113 -1
-1;
#X obj 37 137 s sms;
#X obj 140 48 bng 15 250 50 0 empty empty empty 17 7 0 10 -228856 -1
-1;
#X obj 37 75 int;
#X obj -27 221 bng 15 250 50 0 empty empty empty 17 7 0 10 -4034 -1
-1;
#X obj 841 237 s dimmer;
#X obj 114 433 bng 15 250 50 0 empty empty empty 17 7 0 10 -262144
-1 -1;
#X obj 144 452 moses 200;
#X floatatom 195 474 5 0 0 0 - - -;
#X msg 114 452 0;
#X text 829 111 The [arduino] object works with the Firmata firmware.
///// keep the arduino.pd patch in the same folder/////;
#X obj 841 157 bng 15 250 50 0 empty empty RESET 17 7 0 10 -262144
-1 -1;
#X obj -27 375 bng 15 250 50 0 empty empty empty 17 7 0 10 -4160 -1
-1;
#X obj -136 425 +;
#X floatatom -109 425 5 0 0 0 - - -;
#X obj -73 424 change;
#X obj -136 489 s signalz;
#X obj -35 509 s signalzc;
#X obj -74 488 moses 0;
#X obj 45 474 maxlib/scale 0 25 0 255;
#X obj 45 498 moses 0;
#X obj 96 498 s distcol;
#X obj 136 375 bng 15 250 50 0 empty empty empty 17 7 0 10 -257985
-1 -1;
#X obj 99 402 moses 14;
#X obj 57 -32 tgl 15 0 empty empty empty 17 7 0 10 -262144 -1 -1 0
1;
#X obj 76 -32 tgl 15 0 empty empty empty 17 7 0 10 -262144 -1 -1 0
1;
#X obj 95 -32 tgl 15 0 empty empty empty 17 7 0 10 -262144 -1 -1 0
1;
#X obj 76 -11 bng 15 250 50 0 empty empty empty 17 7 0 10 -262144 -1
-1;
#X obj 57 -11 bng 15 250 50 0 empty empty empty 17 7 0 10 -262144 -1
-1;
#X obj 95 -11 bng 15 250 50 0 empty empty empty 17 7 0 10 -262144 -1
-1;
#X text 114 -16 SCALING IS ESSENTIAL!;
#X obj -136 -40 dumpOSC 50000;
#X floatatom -10 97 5 0 0 0 - - -;
#X floatatom -14 -22 5 0 0 2 TEST - -;
#X obj -134 68 route 0;
#X obj -126 86 bng 15 250 50 0 empty empty empty 17 7 0 10 -262144
-1 -1;
#X msg -131 108 -2;
#X floatatom 26 235 8 0 0 0 - - -;
#X obj -80 270 maxlib/scale 0 1000 0 255;
#X obj -127 150 maxlib/scale 0 1000 0 255;
#X obj -70 110 moses 0;
#X floatatom -70 130 8 0 0 0 - - -;
#X obj -10 74 + 10000;
#X obj 26 212 + 1e+06;
#X text -96 402 0-32 \; 99 no value;
#X obj -136 450 maxlib/scale 0 32 0 255;
#X obj -121 469 maxlib/scale 32 0 0 255;
#X msg 841 204 255;
#X text 776 126 comment;
#X text 397 166 GREEN;
#X text 397 255 BLUE;
#X msg 317 75 print 1c\$1w;
#X obj 346 56 hsl 128 15 0 255 0 0 empty empty empty -2 -8 0 10 -258113
-1 -1 11853 1;
#X obj 346 150 hsl 128 15 0 255 0 0 empty empty empty -2 -8 0 10 -4034
-1 -1 0 1;
#X obj 346 239 hsl 128 15 0 255 0 0 empty empty empty -2 -8 0 10 -4160
-1 -1 12700 1;
#X obj 346 431 hsl 128 15 0 255 0 0 empty empty empty -2 -8 0 10 -128992
-1 -1 0 1;
#X obj 266 55 cnv 15 40 40 empty empty empty 20 12 0 14 -233017 -66577
0;
#X text 270 65 LAMP1;
#X obj 488 55 cnv 15 40 40 empty empty empty 20 12 0 14 -233017 -66577
0;
#X text 492 65 LAMP2;
#X obj 346 330 hsl 128 15 0 255 0 0 empty empty empty -2 -8 0 10 -228856
-1 -1 0 1;
#X obj 566 56 hsl 128 15 0 255 0 0 empty empty empty -2 -8 0 10 -258113
-1 -1 0 1;
#X obj 566 150 hsl 128 15 0 255 0 0 empty empty empty -2 -8 0 10 -4034
-1 -1 12650 1;
#X obj 566 239 hsl 128 15 0 255 0 0 empty empty empty -2 -8 0 10 -4160
-1 -1 12650 1;
#X obj 566 431 hsl 128 15 0 255 0 0 empty empty empty -2 -8 0 10 -262130
-1 -1 11853 1;
#X obj 566 330 hsl 128 15 0 255 0 0 empty empty empty -2 -8 0 10 -66577
-1 -1 0 1;
#X obj 537 55 int;
#X obj 537 148 int;
#X obj 537 238 int;
#X obj 537 429 int;
#X obj 537 328 int;
#X obj 317 55 int;
#X obj 317 148 int;
#X obj 317 238 int;
#X obj 317 429 int;
#X obj 317 328 int;
#X msg 317 168 print 2c\$1w;
#X msg 317 258 print 3c\$1w;
#X msg 317 349 print 4c\$1w;
#X msg 317 449 print 5c\$1w;
#X text 397 445 STROBE FREQ;
#X msg 537 75 print 9c\$1w;
#X msg 537 168 print 10c\$1w;
#X msg 537 449 print 13c\$1w;
#X msg 537 258 print 11c\$1w;
#X msg 537 349 print 12c\$1w;
#X text 397 345 WHITE;
#X text 397 74 RED;
#X text 627 75 RED;
#X text 627 166 GREEN;
#X text 627 256 BLUE;
#X text 627 347 DIMMER;
#X text 627 448 TEMPERATURE;
#X obj 317 510 s RGBW;
#X obj 563 -37 r sms;
#X obj 563 5 line;
#X msg 563 -15 255 \, 0 500;
#X floatatom 598 5 5 0 0 0 - - -;
#X obj 343 11 r conv;
#N canvas 636 440 450 300 rampz 0;
#X obj 97 130 int;
#X floatatom 97 37 5 0 255 0 - - -;
#X obj 97 79 line 0;
#X obj 109 7 inlet;
#X obj 103 161 outlet;
#X msg 97 56 \$1 1000;
#X connect 0 0 4 0;
#X connect 1 0 5 0;
#X connect 2 0 0 0;
#X connect 3 0 1 0;
#X connect 5 0 2 0;
#X restore 343 34 pd rampz;
#X floatatom 398 34 5 0 0 0 - - -;
#N canvas 636 440 450 300 rampz 0;
#X obj 97 130 int;
#X floatatom 97 37 5 0 255 0 - - -;
#X obj 97 79 line 0;
#X obj 109 7 inlet;
#X obj 103 161 outlet;
#X msg 97 56 \$1 1000;
#X connect 0 0 4 0;
#X connect 1 0 5 0;
#X connect 2 0 0 0;
#X connect 3 0 1 0;
#X connect 5 0 2 0;
#X restore 343 213 pd rampz;
#X floatatom 398 214 5 0 0 0 - - -;
#X obj 343 190 r signalz;
#X obj 563 385 r conv;
#N canvas 636 440 450 300 rampz 0;
#X obj 97 130 int;
#X floatatom 97 37 5 0 255 0 - - -;
#X obj 97 79 line 0;
#X obj 109 7 inlet;
#X obj 103 161 outlet;
#X msg 97 56 \$1 1000;
#X connect 0 0 4 0;
#X connect 1 0 5 0;
#X connect 2 0 0 0;
#X connect 3 0 1 0;
#X connect 5 0 2 0;
#X restore 563 408 pd rampz;
#X floatatom 618 408 5 0 0 0 - - -;
#N canvas 636 440 450 300 rampz 0;
#X obj 97 130 int;
#X floatatom 97 37 5 0 255 0 - - -;
#X obj 97 79 line 0;
#X obj 109 7 inlet;
#X obj 103 161 outlet;
#X msg 97 56 \$1 1000;
#X connect 0 0 4 0;
#X connect 1 0 5 0;
#X connect 2 0 0 0;
#X connect 3 0 1 0;
#X connect 5 0 2 0;
#X restore 563 217 pd rampz;
#X floatatom 618 218 5 0 0 0 - - -;
#X obj 563 194 r data;
#N canvas 636 440 450 300 rampz 0;
#X obj 97 130 int;
#X floatatom 97 37 5 0 255 0 - - -;
#X obj 97 79 line 0;
#X obj 109 7 inlet;
#X obj 103 161 outlet;
#X msg 97 56 \$1 1000;
#X connect 0 0 4 0;
#X connect 1 0 5 0;
#X connect 2 0 0 0;
#X connect 3 0 1 0;
#X connect 5 0 2 0;
#X restore 343 406 pd rampz;
#X floatatom 398 407 5 0 0 0 - - -;
#X obj 343 383 r distance;
#X text 383 483 LAMP1: RGBWhite \; addr 1 /// res 8bit /// fdr OFF
/// HSP OFF ///;
#X text 383 511 LAMP2: RGBMaster \; addr 9 /// res 8bit /// fdr ON
/// HSP OFF ///;
#X obj 144 429 maxlib/scale 14 24 255 20;
#N canvas 636 440 450 300 rampz 0;
#X obj 97 130 int;
#X floatatom 97 37 5 0 255 0 - - -;
#X obj 97 79 line 0;
#X obj 109 7 inlet;
#X obj 103 161 outlet;
#X msg 97 56 \$1 1000;
#X connect 0 0 4 0;
#X connect 1 0 5 0;
#X connect 2 0 0 0;
#X connect 3 0 1 0;
#X connect 5 0 2 0;
#X restore 563 127 pd rampz;
#X floatatom 618 128 5 0 0 0 - - -;
#X obj 563 104 r data;
#X connect 2 0 10 0;
#X connect 2 1 4 0;
#X connect 4 0 6 0;
#X connect 5 0 6 0;
#X connect 7 0 6 0;
#X connect 10 0 6 0;
#X connect 13 0 6 0;
#X connect 14 0 17 1;
#X connect 14 0 94 0;
#X connect 15 0 18 1;
#X connect 15 0 70 0;
#X connect 15 0 74 0;
#X connect 16 0 23 0;
#X connect 17 0 14 0;
#X connect 17 0 20 0;
#X connect 18 0 15 0;
#X connect 20 0 55 0;
#X connect 20 0 89 0;
#X connect 22 0 24 0;
#X connect 23 0 16 1;
#X connect 23 0 91 0;
#X connect 23 0 93 0;
#X connect 24 0 25 0;
#X connect 24 0 85 0;
#X connect 27 0 28 0;
#X connect 27 0 54 0;
#X connect 29 0 27 0;
#X connect 30 0 53 0;
#X connect 30 0 52 0;
#X connect 32 0 33 0;
#X connect 32 0 34 0;
#X connect 32 0 35 0;
#X connect 32 0 36 0;
#X connect 32 0 37 0;
#X connect 39 0 40 0;
#X connect 39 0 17 0;
#X connect 41 0 39 0;
#X connect 43 0 44 0;
#X connect 43 0 64 0;
#X connect 45 0 43 0;
#X connect 47 0 48 0;
#X connect 47 0 18 0;
#X connect 49 0 47 0;
#X connect 54 0 30 0;
#X connect 57 0 60 0;
#X connect 58 0 57 0;
#X connect 58 1 59 0;
#X connect 58 1 50 0;
#X connect 59 0 19 0;
#X connect 60 0 19 0;
#X connect 62 0 32 0;
#X connect 62 0 98 0;
#X connect 64 0 65 0;
#X connect 65 0 64 1;
#X connect 65 0 66 0;
#X connect 66 0 63 0;
#X connect 66 0 96 0;
#X connect 66 0 97 0;
#X connect 69 1 68 0;
#X connect 70 0 71 0;
#X connect 71 1 72 0;
#X connect 71 1 73 0;
#X connect 74 0 57 0;
#X connect 74 1 166 0;
#X connect 75 0 78 0;
#X connect 76 0 80 0;
#X connect 77 0 79 0;
#X connect 78 0 76 0;
#X connect 79 0 75 0;
#X connect 80 0 77 0;
#X connect 82 0 0 0;
#X connect 82 0 22 0;
#X connect 82 0 29 0;
#X connect 82 0 41 0;
#X connect 82 0 49 0;
#X connect 82 0 45 0;
#X connect 83 0 90 2;
#X connect 84 0 85 0;
#X connect 85 0 86 0;
#X connect 85 0 87 0;
#X connect 85 1 16 0;
#X connect 87 0 16 0;
#X connect 88 0 89 2;
#X connect 89 0 12 0;
#X connect 90 0 11 0;
#X connect 91 1 92 0;
#X connect 92 0 90 0;
#X connect 93 0 83 0;
#X connect 94 0 88 0;
#X connect 96 0 67 0;
#X connect 97 0 69 0;
#X connect 98 0 56 0;
#X connect 102 0 144 0;
#X connect 103 0 122 0;
#X connect 104 0 123 0;
#X connect 105 0 124 0;
#X connect 106 0 125 0;
#X connect 111 0 126 0;
#X connect 112 0 117 0;
#X connect 113 0 118 0;
#X connect 114 0 119 0;
#X connect 115 0 120 0;
#X connect 116 0 121 0;
#X connect 117 0 132 0;
#X connect 118 0 133 0;
#X connect 119 0 135 0;
#X connect 120 0 134 0;
#X connect 121 0 136 0;
#X connect 122 0 102 0;
#X connect 123 0 127 0;
#X connect 124 0 128 0;
#X connect 125 0 130 0;
#X connect 126 0 129 0;
#X connect 127 0 144 0;
#X connect 128 0 144 0;
#X connect 129 0 144 0;
#X connect 130 0 144 0;
#X connect 132 0 144 0;
#X connect 133 0 144 0;
#X connect 134 0 144 0;
#X connect 135 0 144 0;
#X connect 136 0 144 0;
#X connect 145 0 147 0;
#X connect 146 0 103 0;
#X connect 146 0 148 0;
#X connect 146 0 112 0;
#X connect 147 0 146 0;
#X connect 149 0 150 0;
#X connect 150 0 103 0;
#X connect 150 0 151 0;
#X connect 152 0 153 0;
#X connect 152 0 105 0;
#X connect 154 0 152 0;
#X connect 155 0 156 0;
#X connect 156 0 157 0;
#X connect 156 0 115 0;
#X connect 158 0 159 0;
#X connect 158 0 114 0;
#X connect 160 0 158 0;
#X connect 161 0 162 0;
#X connect 161 0 106 0;
#X connect 163 0 161 0;
#X connect 166 0 58 0;
#X connect 167 0 168 0;
#X connect 167 0 113 0;
#X connect 169 0 167 0;
#X coords 0 0 1 1 85 60 0;
