#N canvas 77 135 1018 571 10;
#X obj -111 -15 print osc;
#X obj 644 -21 cnv 15 60 22 empty empty empty 20 12 0 14 -253938 -66577
0;
#N canvas 146 163 525 433 serin 0;
#X obj 180 61 cnv 15 15 15 empty \$0-number-canvas 0 4 8 0 14 -233017
-1 0;
#X obj 200 225 s \$0-number-canvas;
#X obj 60 61 hradio 15 1 1 8 empty empty empty 0 -6 0 8 -225271 -1
-1 0;
#X obj 60 13 inlet;
#X msg 200 202 label \$1;
#X obj 200 180 makefilename %d;
#X obj 59 108 int;
#X msg 59 206 open \$1;
#X obj 59 377 outlet;
#X msg 201 306 set \$1 \$2;
#X obj 59 266 trigger bang anything;
#X obj 201 286 list;
#X obj 383 383 outlet;
#X obj 384 22 netreceive 34567;
#X obj 477 43 tgl 15 0 empty empty empty 0 -6 0 10 -262144 -1 -1 0
1;
#X obj 384 41 bng 15 250 50 0 empty empty empty 0 -6 0 10 -262144 -1
-1;
#X obj 187 24 delay 15000;
#X text 345 379 close;
#X text 209 4 for open/close automation in Makefile;
#X obj 184 95 bang;
#X obj 184 137 send ARDUINO_TEST_RESET;
#X msg 184 116 set 0;
#X connect 2 0 6 0;
#X connect 2 0 19 0;
#X connect 3 0 2 0;
#X connect 4 0 1 0;
#X connect 5 0 4 0;
#X connect 6 0 5 0;
#X connect 6 0 7 0;
#X connect 7 0 10 0;
#X connect 9 0 8 0;
#X connect 10 0 8 0;
#X connect 10 1 11 0;
#X connect 11 0 9 0;
#X connect 13 0 15 0;
#X connect 13 1 14 0;
#X connect 15 0 16 0;
#X connect 15 0 12 0;
#X connect 16 0 2 0;
#X connect 19 0 21 0;
#X connect 21 0 20 0;
#X coords 0 -1 1 1 136 17 1 60 60;
#X restore 645 1 pd serin;
#X text 645 -43 serial port #;
#X msg 707 -17 close;
#X msg 647 25 info;
#X obj 647 88 arduino 1;
#X msg 647 49 devices;
#X text 702 26 <-- get connection info;
#X text 702 47 <-- list available serial devices;
#X msg 647 -17 open 0;
#X msg 262 25 255 \, 0 400;
#X obj 262 54 line;
#X obj -127 159 s conv;
#X obj -80 305 s data;
#X floatatom 236 110 5 1 255 1 red - -;
#X msg 236 134 print 1c\$1w;
#X floatatom 392 110 5 1 255 1 green - -;
#X msg 392 134 print 2c\$1w;
#X obj 778 299 s RGBW;
#X obj 588 23 r RGBW;
#X floatatom 515 111 5 1 255 1 blue - -;
#X floatatom 515 134 5 1 255 0 - - -;
#X msg 515 134 print 3c\$1w;
#X msg 417 19 print 4c\$1w;
#X floatatom -136 270 8 0 0 0 - - -;
#X floatatom 64 403 5 0 0 0 - - -;
#X msg 246 310 print 5c\$1w;
#X floatatom 362 323 5 1 255 1 dimmer - -;
#X msg 362 344 print 7c\$1w;
#X obj 417 177 s COLOUR;
#X floatatom 424 -26 5 1 255 1 white - -;
#X obj 588 47 r COLOUR;
#X obj 362 297 int;
#X obj 362 273 line;
#X msg 362 225 0 \, \$1 600;
#X msg 362 249 255 \, \$1 400;
#X floatatom 325 252 5 0 255 0 - - -;
#X floatatom 325 275 5 0 255 0 - - -;
#X obj -70 110 change;
#X obj 479 48 cnv 15 50 30 empty empty empty 20 12 0 14 -4160 -66577
0;
#X obj 485 55 r signalz;
#X obj 242 226 cnv 15 50 30 empty empty empty 20 12 0 14 -4032 -66577
0;
#X obj 201 47 cnv 15 50 30 empty empty empty 20 12 0 14 -258113 -66577
0;
#X obj 357 47 cnv 15 50 30 empty empty empty 20 12 0 14 -4034 -66577
0;
#X obj 256 -15 cnv 15 50 30 empty empty empty 20 12 0 14 -1 -66577
0;
#X obj 362 53 r data;
#X obj 206 53 r conv;
#X floatatom 523 254 5 1 255 1 color - -;
#X msg 523 277 print 8c\$1w;
#X obj 487 190 cnv 15 50 30 empty empty empty 20 12 0 14 -257985 -66577
0;
#X obj -97 91 +;
#X obj 945 299 s RGBW;
#X floatatom 246 266 5 0 0 1 strobo - -;
#X obj -136 249 +;
#X obj 36 402 +;
#X obj 159 499 s distance;
#X obj 262 -9 r sms;
#X obj 246 232 r distance;
#X obj -80 249 change;
#X obj 246 287 int;
#X obj 424 -4 int;
#X obj -141 16 cnv 15 150 55 empty empty empty 20 12 0 14 -233017 -66577
0;
#X obj -136 23 OSCroute /conversation;
#X floatatom -70 91 8 0 0 0 - - -;
#X obj -136 46 unpack f;
#X floatatom -79 47 5 0 0 0 - - -;
#X obj 32 16 cnv 15 150 55 empty empty empty 20 12 0 14 -233017 -66577
0;
#X obj 37 46 unpack f;
#X floatatom 94 47 5 0 0 0 - - -;
#X obj 37 23 OSCroute /sms;
#X obj 37 98 change;
#X obj 700 206 cnv 15 70 80 empty empty empty 20 12 0 14 -261234 -66577
0;
#X msg 711 238 0;
#X msg 711 262 255;
#X obj 650 247 s data;
#X obj 650 271 s conv;
#X obj 650 295 s sms;
#X obj 650 319 s distance;
#X obj 650 343 s signalz;
#X obj -141 190 cnv 15 150 55 empty empty empty 20 12 0 14 -233017
-66577 0;
#X obj -136 220 unpack f;
#X floatatom -79 221 5 0 0 0 - - -;
#X obj -136 197 OSCroute /data;
#X obj -141 344 cnv 15 150 55 empty empty empty 20 12 0 14 -233017
-66577 0;
#X obj -136 374 unpack f;
#X floatatom -79 375 5 0 0 0 - - -;
#X obj -136 351 OSCroute /signal;
#X obj 31 344 cnv 15 150 55 empty empty empty 20 12 0 14 -233017 -66577
0;
#X obj 36 374 unpack f;
#X floatatom 93 375 5 0 0 0 - - -;
#X obj 36 351 OSCroute /celldistance;
#X obj 156 375 bng 15 250 50 0 empty empty empty 17 7 0 10 -4032 -1
-1;
#X obj -27 47 bng 15 250 50 0 empty empty empty 17 7 0 10 -258113 -1
-1;
#X obj 37 137 s sms;
#X obj 140 48 bng 15 250 50 0 empty empty empty 17 7 0 10 -228856 -1
-1;
#X obj 37 75 int;
#X obj -27 221 bng 15 250 50 0 empty empty empty 17 7 0 10 -4034 -1
-1;
#X obj 711 295 s dimmer;
#X obj 114 433 bng 15 250 50 0 empty empty empty 17 7 0 10 -262144
-1 -1;
#X obj 144 452 moses 200;
#X floatatom 195 474 5 0 0 0 - - -;
#X msg 114 452 0;
#X text 645 111 The [arduino] object works with the Firmata firmware.
///// keep the arduino.pd patch in the same folder/////;
#X obj 404 297 r dimmer;
#X obj 711 215 bng 15 250 50 0 empty empty RESET 17 7 0 10 -262144
-1 -1;
#X obj -27 375 bng 15 250 50 0 empty empty empty 17 7 0 10 -4160 -1
-1;
#X obj -136 403 +;
#X floatatom -109 403 5 0 0 0 - - -;
#X obj -136 429 change;
#X obj -136 489 s signalz;
#X obj -35 509 s signalzc;
#X obj -121 469 maxlib/scale 80 100 0 255;
#X obj -136 450 maxlib/scale 0 100 0 255;
#N canvas 698 524 450 300 rampz 0;
#X obj 97 130 int;
#X floatatom 97 37 5 0 255 0 - - -;
#X msg 97 56 \$1 600;
#X obj 97 79 line 0;
#X obj 109 7 inlet;
#X obj 103 161 outlet;
#X connect 0 0 5 0;
#X connect 1 0 2 0;
#X connect 2 0 3 0;
#X connect 3 0 0 0;
#X connect 4 0 1 0;
#X restore 485 90 pd rampz;
#X obj -74 488 moses 0;
#N canvas 793 343 450 300 rampz 0;
#X obj 97 130 int;
#X floatatom 97 37 5 0 255 0 - - -;
#X msg 97 56 \$1 600;
#X obj 97 79 line 0;
#X obj 109 7 inlet;
#X obj 103 161 outlet;
#X connect 0 0 5 0;
#X connect 1 0 2 0;
#X connect 2 0 3 0;
#X connect 3 0 0 0;
#X connect 4 0 1 0;
#X restore 362 89 pd rampz;
#X obj 262 75 int;
#N canvas 636 540 450 300 rampz 0;
#X obj 97 130 int;
#X floatatom 97 37 5 0 255 0 - - -;
#X msg 97 56 \$1 600;
#X obj 97 79 line 0;
#X obj 109 7 inlet;
#X obj 103 161 outlet;
#X connect 0 0 5 0;
#X connect 1 0 2 0;
#X connect 2 0 3 0;
#X connect 3 0 0 0;
#X connect 4 0 1 0;
#X restore 206 89 pd rampz;
#X obj 45 474 maxlib/scale 0 25 0 255;
#X obj 45 498 moses 0;
#X obj 493 197 r distcol;
#X obj 96 498 s distcol;
#N canvas 721 383 450 300 rampz 0;
#X obj 97 130 int;
#X floatatom 97 37 5 0 255 0 - - -;
#X msg 97 56 \$1 600;
#X obj 97 79 line 0;
#X obj 109 7 inlet;
#X obj 103 161 outlet;
#X connect 0 0 5 0;
#X connect 1 0 2 0;
#X connect 2 0 3 0;
#X connect 3 0 0 0;
#X connect 4 0 1 0;
#X restore 493 233 pd rampz;
#X floatatom 479 134 5 1 255 0 - - -;
#X msg 401 408 print 15c\$1w;
#X obj 807 208 hsl 128 15 0 255 0 0 empty empty empty -2 -8 0 10 -258113
-1 -1 0 1;
#X obj 807 252 hsl 128 15 0 255 0 0 empty empty empty -2 -8 0 10 -66577
-1 -1 0 1;
#X obj 974 208 hsl 128 15 0 255 0 0 empty empty empty -2 -8 0 10 -258113
-1 -1 0 1;
#X obj 974 252 hsl 128 15 0 255 0 0 empty empty empty -2 -8 0 10 -66577
-1 -1 0 1;
#X obj 945 207 int;
#X obj 945 250 int;
#X obj 778 207 int;
#X obj 778 250 int;
#X msg 778 228 print 1c\$1w;
#X msg 778 271 print 7c\$1w;
#X msg 945 228 print 9c\$1w;
#X msg 945 271 print 15c\$1w;
#X msg 183 199 print 12c\$1w;
#X obj 136 375 bng 15 250 50 0 empty empty empty 17 7 0 10 -257985
-1 -1;
#X text 646 184 DMX programme 1 RGBW 8CHANNEL 1 red 2 green 3 blue
4 white 7 dimmer;
#X msg 339 203 print 16c\$1w;
#X msg 459 342 print 10c\$1w;
#X floatatom 459 321 5 0 0 1 green - -;
#X floatatom 183 179 5 1 255 1 white - -;
#X obj 177 117 cnv 15 50 30 empty empty empty 20 12 0 14 -228856 -66577
0;
#N canvas 698 524 450 300 rampz 0;
#X obj 97 130 int;
#X floatatom 97 37 5 0 255 0 - - -;
#X msg 97 56 \$1 600;
#X obj 97 79 line 0;
#X obj 109 7 inlet;
#X obj 103 161 outlet;
#X connect 0 0 5 0;
#X connect 1 0 2 0;
#X connect 2 0 3 0;
#X connect 3 0 0 0;
#X connect 4 0 1 0;
#X restore 183 159 pd rampz;
#X obj 183 124 r conv;
#X floatatom 339 178 5 1 255 1 color - -;
#X obj 333 116 cnv 15 50 30 empty empty empty 20 12 0 14 -257985 -66577
0;
#N canvas 698 524 450 300 rampz 0;
#X obj 97 130 int;
#X floatatom 97 37 5 0 255 0 - - -;
#X msg 97 56 \$1 600;
#X obj 97 79 line 0;
#X obj 109 7 inlet;
#X obj 103 161 outlet;
#X connect 0 0 5 0;
#X connect 1 0 2 0;
#X connect 2 0 3 0;
#X connect 3 0 0 0;
#X connect 4 0 1 0;
#X restore 339 158 pd rampz;
#X obj 339 123 r data;
#X obj 401 367 * 0.8;
#X obj 401 387 int;
#X msg 479 156 print 11c\$1w;
#X obj 453 257 cnv 15 50 30 empty empty empty 20 12 0 14 -4034 -66577
0;
#X obj 459 264 r distcol;
#N canvas 721 383 450 300 rampz 0;
#X obj 97 130 int;
#X floatatom 97 37 5 0 255 0 - - -;
#X msg 97 56 \$1 600;
#X obj 97 79 line 0;
#X obj 109 7 inlet;
#X obj 103 161 outlet;
#X connect 0 0 5 0;
#X connect 1 0 2 0;
#X connect 2 0 3 0;
#X connect 3 0 0 0;
#X connect 4 0 1 0;
#X restore 459 300 pd rampz;
#X obj 144 429 maxlib/scale 14 24 255 165;
#X obj 99 402 moses 14;
#X obj 57 -32 tgl 15 0 empty empty empty 17 7 0 10 -262144 -1 -1 0
1;
#X obj 76 -32 tgl 15 0 empty empty empty 17 7 0 10 -262144 -1 -1 1
1;
#X obj 95 -32 tgl 15 0 empty empty empty 17 7 0 10 -262144 -1 -1 1
1;
#X obj 76 -11 bng 15 250 50 0 empty empty empty 17 7 0 10 -262144 -1
-1;
#X obj 57 -11 bng 15 250 50 0 empty empty empty 17 7 0 10 -262144 -1
-1;
#X obj 95 -11 bng 15 250 50 0 empty empty empty 17 7 0 10 -262144 -1
-1;
#X text 114 -16 SCALING IS ESSENTIAL!;
#X obj -136 -40 dumpOSC 50000;
#X obj -80 270 maxlib/scale 0 451867 0 255;
#X floatatom -10 97 5 0 0 0 - - -;
#X floatatom 77 255 5 0 0 0 - - -;
#X obj -10 74 + 100;
#X obj -127 135 maxlib/scale 0 2000 0 255;
#X floatatom -14 -22 5 0 0 2 TEST - -;
#X obj -134 68 route 0;
#X obj -126 86 bng 15 250 50 0 empty empty empty 17 7 0 10 -262144
-1 -1;
#X msg -131 108 -2;
#X connect 2 0 10 0;
#X connect 2 1 4 0;
#X connect 4 0 6 0;
#X connect 5 0 6 0;
#X connect 7 0 6 0;
#X connect 10 0 6 0;
#X connect 11 0 12 0;
#X connect 12 0 117 0;
#X connect 15 0 16 0;
#X connect 16 0 30 0;
#X connect 17 0 18 0;
#X connect 18 0 30 0;
#X connect 20 0 6 0;
#X connect 21 0 22 0;
#X connect 21 0 124 0;
#X connect 23 0 30 0;
#X connect 24 0 30 0;
#X connect 25 0 54 1;
#X connect 26 0 55 1;
#X connect 26 0 119 0;
#X connect 26 0 159 0;
#X connect 27 0 30 0;
#X connect 28 0 29 0;
#X connect 28 0 152 0;
#X connect 29 0 30 0;
#X connect 31 0 61 0;
#X connect 32 0 6 0;
#X connect 33 0 28 0;
#X connect 34 0 33 0;
#X connect 35 0 34 0;
#X connect 36 0 34 0;
#X connect 37 0 35 0;
#X connect 38 0 36 0;
#X connect 39 0 93 0;
#X connect 39 0 172 0;
#X connect 41 0 114 0;
#X connect 46 0 116 0;
#X connect 47 0 118 0;
#X connect 48 0 49 0;
#X connect 49 0 30 0;
#X connect 51 0 64 0;
#X connect 53 0 60 0;
#X connect 54 0 25 0;
#X connect 54 0 59 0;
#X connect 55 0 26 0;
#X connect 57 0 11 0;
#X connect 58 0 53 0;
#X connect 59 0 97 0;
#X connect 59 0 168 0;
#X connect 60 0 27 0;
#X connect 61 0 24 0;
#X connect 63 0 65 0;
#X connect 64 0 51 1;
#X connect 64 0 39 0;
#X connect 64 0 171 0;
#X connect 65 0 66 0;
#X connect 65 0 174 0;
#X connect 68 0 69 0;
#X connect 68 0 96 0;
#X connect 70 0 68 0;
#X connect 71 0 95 0;
#X connect 71 0 94 0;
#X connect 73 0 75 0;
#X connect 73 0 76 0;
#X connect 73 0 77 0;
#X connect 73 0 78 0;
#X connect 73 0 79 0;
#X connect 74 0 98 0;
#X connect 81 0 82 0;
#X connect 81 0 54 0;
#X connect 83 0 81 0;
#X connect 85 0 86 0;
#X connect 85 0 107 0;
#X connect 87 0 85 0;
#X connect 89 0 90 0;
#X connect 89 0 55 0;
#X connect 91 0 89 0;
#X connect 96 0 71 0;
#X connect 99 0 102 0;
#X connect 100 0 99 0;
#X connect 100 1 101 0;
#X connect 100 1 92 0;
#X connect 101 0 56 0;
#X connect 102 0 56 0;
#X connect 104 0 28 0;
#X connect 105 0 73 0;
#X connect 105 0 74 0;
#X connect 107 0 108 0;
#X connect 108 0 107 1;
#X connect 108 0 109 0;
#X connect 109 0 106 0;
#X connect 109 0 112 0;
#X connect 109 0 113 0;
#X connect 112 0 115 0;
#X connect 113 0 110 0;
#X connect 114 0 21 0;
#X connect 115 1 111 0;
#X connect 116 0 17 0;
#X connect 117 0 15 0;
#X connect 118 0 15 0;
#X connect 119 0 120 0;
#X connect 120 1 122 0;
#X connect 120 1 139 0;
#X connect 121 0 123 0;
#X connect 123 0 48 0;
#X connect 124 0 154 0;
#X connect 125 0 30 0;
#X connect 126 0 132 0;
#X connect 127 0 133 0;
#X connect 128 0 130 0;
#X connect 129 0 131 0;
#X connect 130 0 136 0;
#X connect 131 0 137 0;
#X connect 132 0 134 0;
#X connect 133 0 135 0;
#X connect 134 0 19 0;
#X connect 135 0 19 0;
#X connect 136 0 52 0;
#X connect 137 0 52 0;
#X connect 138 0 30 0;
#X connect 141 0 30 0;
#X connect 142 0 30 0;
#X connect 143 0 142 0;
#X connect 144 0 138 0;
#X connect 146 0 144 0;
#X connect 147 0 146 0;
#X connect 148 0 141 0;
#X connect 150 0 148 0;
#X connect 151 0 150 0;
#X connect 152 0 153 0;
#X connect 153 0 125 0;
#X connect 154 0 30 0;
#X connect 156 0 157 0;
#X connect 157 0 143 0;
#X connect 158 0 100 0;
#X connect 159 0 99 0;
#X connect 159 1 158 0;
#X connect 160 0 163 0;
#X connect 161 0 165 0;
#X connect 162 0 164 0;
#X connect 163 0 161 0;
#X connect 164 0 160 0;
#X connect 165 0 162 0;
#X connect 167 0 0 0;
#X connect 167 0 63 0;
#X connect 167 0 70 0;
#X connect 167 0 83 0;
#X connect 167 0 91 0;
#X connect 167 0 87 0;
#X connect 168 0 14 0;
#X connect 169 0 172 2;
#X connect 171 0 169 0;
#X connect 172 0 13 0;
#X connect 173 0 174 0;
#X connect 174 0 175 0;
#X connect 174 0 176 0;
#X connect 174 1 51 0;
#X connect 176 0 51 0;
#X coords 0 0 1 1 85 60 0;
