#N canvas 541 83 1040 625 10;
#X obj -111 -15 print osc;
#X obj 743 -10 cnv 15 60 22 empty empty empty 20 12 0 14 -253938 -66577
0;
#N canvas 146 163 525 433 serin 0;
#X obj 180 61 cnv 15 15 15 empty \$0-number-canvas 0 4 8 0 14 -233017
-1 0;
#X obj 200 225 s \$0-number-canvas;
#X obj 60 61 hradio 15 1 1 8 empty empty empty 0 -6 0 8 -225271 -1
-1 0;
#X obj 60 13 inlet;
#X msg 200 202 label \$1;
#X obj 200 180 makefilename %d;
#X obj 59 108 int;
#X msg 59 206 open \$1;
#X obj 59 377 outlet;
#X msg 201 306 set \$1 \$2;
#X obj 59 266 trigger bang anything;
#X obj 201 286 list;
#X obj 383 383 outlet;
#X obj 384 22 netreceive 34567;
#X obj 477 43 tgl 15 0 empty empty empty 0 -6 0 10 -262144 -1 -1 0
1;
#X obj 384 41 bng 15 250 50 0 empty empty empty 0 -6 0 10 -262144 -1
-1;
#X obj 187 24 delay 15000;
#X text 345 379 close;
#X text 209 4 for open/close automation in Makefile;
#X obj 184 95 bang;
#X obj 184 137 send ARDUINO_TEST_RESET;
#X msg 184 116 set 0;
#X connect 2 0 6 0;
#X connect 2 0 19 0;
#X connect 3 0 2 0;
#X connect 4 0 1 0;
#X connect 5 0 4 0;
#X connect 6 0 5 0;
#X connect 6 0 7 0;
#X connect 7 0 10 0;
#X connect 9 0 8 0;
#X connect 10 0 8 0;
#X connect 10 1 11 0;
#X connect 11 0 9 0;
#X connect 13 0 15 0;
#X connect 13 1 14 0;
#X connect 15 0 16 0;
#X connect 15 0 12 0;
#X connect 16 0 2 0;
#X connect 19 0 21 0;
#X connect 21 0 20 0;
#X coords 0 -1 1 1 136 17 1 60 60;
#X restore 744 12 pd serin;
#X text 744 -32 serial port #;
#X msg 806 -6 close;
#X msg 746 36 info;
#X obj 746 99 arduino 1;
#X msg 746 60 devices;
#X text 801 37 <-- get connection info;
#X text 801 58 <-- list available serial devices;
#X msg 746 -6 open 0;
#X obj -115 177 s conv;
#X obj 687 34 r RGBW;
#X obj -141 16 cnv 15 150 55 empty empty empty 20 12 0 14 -233017 -66577
0;
#X obj -136 23 OSCroute /conversation;
#X obj 32 16 cnv 15 150 55 empty empty empty 20 12 0 14 -233017 -66577
0;
#X obj 37 46 unpack f;
#X floatatom 94 47 5 0 0 0 - - -;
#X obj 37 23 OSCroute /sms;
#X obj 37 98 change;
#X obj -141 202 cnv 15 150 55 empty empty empty 20 12 0 14 -233017
-66577 0;
#X obj -136 210 OSCroute /data;
#X obj -141 344 cnv 15 150 55 empty empty empty 20 12 0 14 -233017
-66577 0;
#X obj -136 374 unpack f;
#X floatatom -79 375 5 0 0 0 - - -;
#X obj -136 351 OSCroute /signal;
#X obj 37 130 s sms;
#X obj 37 75 int;
#X obj -27 234 bng 15 250 50 0 empty empty empty 17 7 0 10 -4034 -1
-1;
#X text 744 122 The [arduino] object works with the Firmata firmware.
///// keep the arduino.pd patch in the same folder/////;
#X obj -136 405 +;
#X floatatom -109 405 5 0 0 0 - - -;
#X obj -73 404 change;
#X obj -146 481 s signalz;
#X text 745 195 DMX programme 1 RGBW 8CHANNEL 1 red 2 green 3 blue
4 white 7 dimmer;
#X obj -136 -40 dumpOSC 50000;
#X obj -136 430 maxlib/scale 0 32 0 255;
#X text 333 46 RED;
#X text 333 128 GREEN;
#X text 333 172 BLUE;
#X text 333 260 WHITE;
#X text 331 472 DIMMER;
#X msg 253 47 print 1c\$1w;
#X obj 282 28 hsl 128 15 0 255 0 0 empty empty empty -2 -8 0 10 -258113
-1 -1 0 1;
#X obj 282 111 hsl 128 15 0 255 0 0 empty empty empty -2 -8 0 10 -4034
-1 -1 0 1;
#X msg 253 129 print 2c\$1w;
#X obj 282 154 hsl 128 15 0 255 0 0 empty empty empty -2 -8 0 10 -4160
-1 -1 0 1;
#X msg 253 173 print 3c\$1w;
#X obj 282 243 hsl 128 15 0 255 0 0 empty empty empty -2 -8 0 10 -228856
-1 -1 0 1;
#X obj 202 16 cnv 15 40 40 empty empty empty 20 12 0 14 -233017 -66577
0;
#X text 206 26 LAMP1;
#X obj 424 27 cnv 15 40 40 empty empty empty 20 12 0 14 -233017 -66577
0;
#X text 428 37 LAMP2;
#X obj 282 453 hsl 128 15 0 255 0 0 empty empty empty -2 -8 0 10 -66577
-1 -1 0 1;
#X msg 253 261 print 4c\$1w;
#X msg 253 472 print 7c\$1w;
#X obj 502 28 hsl 128 15 0 255 0 0 empty empty empty -2 -8 0 10 -258113
-1 -1 0 1;
#X obj 502 111 hsl 128 15 0 255 0 0 empty empty empty -2 -8 0 10 -4034
-1 -1 0 1;
#X obj 502 154 hsl 128 15 0 255 0 0 empty empty empty -2 -8 0 10 -4160
-1 -1 0 1;
#X obj 502 243 hsl 128 15 0 255 0 0 empty empty empty -2 -8 0 10 -228856
-1 -1 0 1;
#X obj 502 452 hsl 128 15 0 255 0 0 empty empty empty -2 -8 0 10 -66577
-1 -1 0 1;
#X msg 473 472 print 15c\$1w;
#X msg 473 261 print 12c\$1w;
#X msg 473 173 print 11c\$1w;
#X msg 473 129 print 10c\$1w;
#X msg 473 47 print 9c\$1w;
#X obj 473 27 int;
#X obj 473 109 int;
#X obj 473 153 int;
#X obj 473 241 int;
#X obj 473 451 int;
#X obj 253 27 int;
#X obj 253 109 int;
#X obj 253 153 int;
#X obj 253 241 int;
#X obj 253 451 int;
#X obj 253 508 s RGBW;
#X obj 499 -17 r conv;
#N canvas 636 440 450 300 rampz 0;
#X obj 97 130 int;
#X floatatom 97 37 5 0 255 0 - - -;
#X obj 97 79 line 0;
#X obj 109 7 inlet;
#X obj 103 161 outlet;
#X msg 97 57 \$1 9000;
#X connect 0 0 4 0;
#X connect 1 0 5 0;
#X connect 2 0 0 0;
#X connect 3 0 1 0;
#X connect 5 0 2 0;
#X restore 499 6 pd rampz;
#X floatatom 554 6 5 0 0 0 - - -;
#X obj 279 -45 r sms;
#X obj 279 -3 line;
#X msg 279 -23 255 \, 0 500;
#X floatatom 314 -3 5 0 0 0 - - -;
#X obj 15 211 +;
#X floatatom 15 233 8 0 0 0 - - -;
#X obj -129 49 +;
#X floatatom -101 49 8 0 0 0 - - -;
#X obj -127 235 +;
#X floatatom -99 235 8 0 0 0 - - -;
#X floatatom -46 258 8 0 0 0 - - -;
#X floatatom -61 76 8 0 0 0 - - -;
#X text -132 258 BYTES;
#X text -130 77 MINS;
#X obj -115 110 /;
#X obj -46 281 /;
#X obj -115 157 maxlib/scale 0 1 0 255;
#X floatatom -115 132 5 0 0 0 - - -;
#X obj -94 306 maxlib/scale 0 1 0 255;
#X floatatom -94 281 5 0 0 0 - - -;
#X obj -94 326 s data;
#X obj 282 331 hsl 128 15 0 255 0 0 empty empty empty -2 -8 0 10 -204800
-1 -1 0 1;
#X obj 502 371 hsl 128 15 0 255 0 0 empty empty empty -2 -8 0 10 -262130
-1 -1 0 1;
#X obj 473 370 int;
#X obj 253 329 int;
#X obj 499 432 r dimmer;
#X obj 307 429 r dimmer;
#X msg 253 349 print 5c\$1w;
#X text 333 348 STROBO;
#X msg 473 390 print 16c\$1w;
#X text 558 389 COLOR;
#X obj 638 372 r conv;
#N canvas 636 440 450 300 rampz 0;
#X obj 97 130 int;
#X floatatom 97 37 5 0 255 0 - - -;
#X obj 97 79 line 0;
#X obj 109 7 inlet;
#X obj 103 161 outlet;
#X msg 97 56 \$1 1000;
#X connect 0 0 4 0;
#X connect 1 0 5 0;
#X connect 2 0 0 0;
#X connect 3 0 1 0;
#X connect 5 0 2 0;
#X restore 638 414 pd rampz;
#X floatatom 693 414 5 0 0 0 - - -;
#N canvas 636 440 450 300 rampz 0;
#X obj 97 130 int;
#X floatatom 97 37 5 0 255 0 - - -;
#X obj 97 79 line 0;
#X obj 109 7 inlet;
#X obj 103 161 outlet;
#X msg 97 56 \$1 1000;
#X connect 0 0 4 0;
#X connect 1 0 5 0;
#X connect 2 0 0 0;
#X connect 3 0 1 0;
#X connect 5 0 2 0;
#X restore 279 308 pd rampz;
#X floatatom 334 308 5 0 0 0 - - -;
#X obj 282 373 hsl 128 15 0 255 0 0 empty empty empty -2 -8 0 10 -261682
-1 -1 0 1;
#X obj 253 371 int;
#X msg 253 391 print 6c\$1w;
#X text 333 390 ?????;
#X obj 502 331 hsl 128 15 0 255 0 0 empty empty empty -2 -8 0 10 -204800
-1 -1 0 1;
#X obj 473 329 int;
#X text 553 348 STROBO;
#N canvas 636 440 450 300 rampz 0;
#X obj 97 130 int;
#X floatatom 97 37 5 0 255 0 - - -;
#X obj 97 79 line 0;
#X obj 109 7 inlet;
#X obj 103 161 outlet;
#X msg 97 56 \$1 1000;
#X connect 0 0 4 0;
#X connect 1 0 5 0;
#X connect 2 0 0 0;
#X connect 3 0 1 0;
#X connect 5 0 2 0;
#X restore 499 308 pd rampz;
#X floatatom 554 308 5 0 0 0 - - -;
#X msg 473 349 print 13c\$1w;
#X obj 638 393 * 0.2;
#N canvas 636 440 450 300 rampz 0;
#X obj 97 130 int;
#X floatatom 97 37 5 0 255 0 - - -;
#X obj 97 79 line 0;
#X obj 109 7 inlet;
#X obj 103 161 outlet;
#X msg 97 56 \$1 9000;
#X connect 0 0 4 0;
#X connect 1 0 5 0;
#X connect 2 0 0 0;
#X connect 3 0 1 0;
#X connect 5 0 2 0;
#X restore 279 218 pd rampz;
#X floatatom 334 218 5 0 0 0 - - -;
#X obj 279 195 r signalz;
#N canvas 1197 467 450 300 rampz 0;
#X obj 74 127 int;
#X floatatom 52 38 5 0 255 0 - - -;
#X obj 52 80 line 0;
#X obj 64 8 inlet;
#X obj 79 163 outlet;
#X msg 52 57 \$1 9000;
#X connect 0 0 4 0;
#X connect 1 0 5 0;
#X connect 2 0 0 0;
#X connect 3 0 1 0;
#X connect 5 0 2 0;
#X coords 0 300 1 299 185 40 0;
#X restore 499 218 pd rampz;
#X floatatom 554 218 5 0 0 0 - - -;
#X obj 499 195 r signalz;
#N canvas 636 440 450 300 rampz 0;
#X obj 97 130 int;
#X floatatom 97 37 5 0 255 0 - - -;
#X obj 97 79 line 0;
#X obj 109 7 inlet;
#X obj 103 161 outlet;
#X msg 97 56 \$1 9000;
#X connect 0 0 4 0;
#X connect 1 0 5 0;
#X connect 2 0 0 0;
#X connect 3 0 1 0;
#X connect 5 0 2 0;
#X restore 279 90 pd rampz;
#X floatatom 334 90 5 0 0 0 - - -;
#X obj 279 67 r data;
#X text 42 -34 MINUTES VS MEGABYTES;
#X obj -101 76 / 60;
#X obj -146 457 * 0.3;
#N canvas 1321 688 450 300 dimmer 0;
#X obj 111 103 hsl 128 15 0 255 0 0 empty empty empty -2 -8 0 10 -66577
-1 -1 0 1;
#X msg 8 110 print 15c\$1w;
#X obj 8 25 int;
#X obj 34 6 r dimmer;
#X obj 8 136 s RGBW;
#X connect 0 0 2 0;
#X connect 1 0 4 0;
#X connect 2 0 1 0;
#X connect 3 0 0 0;
#X coords 0 -1 1 1 155 20 2 100 100;
#X restore 489 509 pd dimmer;
#N canvas 745 259 150 161 reset 0;
#X obj -700 -1000 cnv 15 70 80 empty empty empty 20 12 0 14 -261234
-66577 0;
#X msg -689 -968 0;
#X msg -689 -944 255;
#X obj -751 -949 s data;
#X obj -751 -925 s conv;
#X obj -751 -901 s sms;
#X obj -751 -877 s distance;
#X obj -751 -853 s signalz;
#X obj -670 -901 s dimmer;
#X obj -689 -991 bng 15 250 50 0 empty empty RESET 17 7 0 10 -262144
-1 -1;
#X connect 1 0 3 0;
#X connect 1 0 4 0;
#X connect 1 0 5 0;
#X connect 1 0 6 0;
#X connect 1 0 7 0;
#X connect 2 0 8 0;
#X connect 9 0 1 0;
#X connect 9 0 2 0;
#X coords 0 0 1 1 70 50 2 -700 -1000;
#X restore 746 232 pd reset;
#X obj -99 257 / 10000;
#X obj 29 273 s data_bang;
#X connect 2 0 10 0;
#X connect 2 1 4 0;
#X connect 4 0 6 0;
#X connect 5 0 6 0;
#X connect 7 0 6 0;
#X connect 10 0 6 0;
#X connect 12 0 6 0;
#X connect 14 0 86 0;
#X connect 16 0 17 0;
#X connect 16 0 27 0;
#X connect 18 0 16 0;
#X connect 19 0 26 0;
#X connect 21 0 88 0;
#X connect 23 0 24 0;
#X connect 23 0 30 0;
#X connect 25 0 23 0;
#X connect 27 0 19 0;
#X connect 28 0 142 0;
#X connect 30 0 31 0;
#X connect 31 0 30 1;
#X connect 31 0 32 0;
#X connect 32 0 36 0;
#X connect 35 0 0 0;
#X connect 35 0 14 0;
#X connect 35 0 18 0;
#X connect 35 0 21 0;
#X connect 35 0 25 0;
#X connect 36 0 138 0;
#X connect 42 0 76 0;
#X connect 43 0 71 0;
#X connect 44 0 72 0;
#X connect 45 0 76 0;
#X connect 46 0 73 0;
#X connect 47 0 76 0;
#X connect 48 0 74 0;
#X connect 53 0 75 0;
#X connect 54 0 76 0;
#X connect 55 0 76 0;
#X connect 56 0 66 0;
#X connect 57 0 67 0;
#X connect 58 0 68 0;
#X connect 59 0 69 0;
#X connect 60 0 70 0;
#X connect 61 0 76 0;
#X connect 62 0 76 0;
#X connect 63 0 76 0;
#X connect 64 0 76 0;
#X connect 65 0 76 0;
#X connect 66 0 65 0;
#X connect 67 0 64 0;
#X connect 68 0 63 0;
#X connect 69 0 62 0;
#X connect 70 0 61 0;
#X connect 71 0 42 0;
#X connect 72 0 45 0;
#X connect 73 0 47 0;
#X connect 74 0 54 0;
#X connect 75 0 55 0;
#X connect 77 0 78 0;
#X connect 78 0 79 0;
#X connect 78 0 56 0;
#X connect 80 0 82 0;
#X connect 81 0 83 0;
#X connect 81 0 56 0;
#X connect 82 0 81 0;
#X connect 84 0 85 0;
#X connect 85 0 94 1;
#X connect 85 0 95 1;
#X connect 86 0 87 0;
#X connect 87 0 86 1;
#X connect 87 0 137 0;
#X connect 88 0 89 0;
#X connect 89 0 88 1;
#X connect 89 0 141 0;
#X connect 90 0 84 1;
#X connect 90 0 95 0;
#X connect 91 0 84 0;
#X connect 91 0 94 0;
#X connect 94 0 97 0;
#X connect 95 0 99 0;
#X connect 96 0 11 0;
#X connect 97 0 96 0;
#X connect 98 0 100 0;
#X connect 99 0 98 0;
#X connect 99 0 28 0;
#X connect 101 0 104 0;
#X connect 102 0 103 0;
#X connect 103 0 109 0;
#X connect 104 0 107 0;
#X connect 105 0 60 0;
#X connect 106 0 53 0;
#X connect 107 0 76 0;
#X connect 109 0 76 0;
#X connect 111 0 126 0;
#X connect 112 0 113 0;
#X connect 114 0 115 0;
#X connect 114 0 101 0;
#X connect 116 0 117 0;
#X connect 117 0 118 0;
#X connect 118 0 76 0;
#X connect 120 0 121 0;
#X connect 121 0 125 0;
#X connect 123 0 124 0;
#X connect 123 0 120 0;
#X connect 125 0 76 0;
#X connect 126 0 112 0;
#X connect 127 0 128 0;
#X connect 127 0 46 0;
#X connect 127 0 48 0;
#X connect 129 0 127 0;
#X connect 130 0 131 0;
#X connect 130 0 58 0;
#X connect 132 0 130 0;
#X connect 133 0 134 0;
#X connect 133 0 44 0;
#X connect 135 0 133 0;
#X connect 137 0 91 0;
#X connect 138 0 33 0;
#X connect 141 0 90 0;
#X coords 0 0 1 1 85 60 0;
