#N canvas 886 146 382 254 10;
#X obj 225 -458 hsl 128 15 0 255 0 0 empty empty empty -2 -8 0 10 -258113
-1 -1 4433 1;
#X obj 225 -416 hsl 128 15 0 255 0 0 empty empty empty -2 -8 0 10 -4034
-1 -1 4433 1;
#X obj 225 -376 hsl 128 15 0 255 0 0 empty empty empty -2 -8 0 10 -4160
-1 -1 4433 1;
#X obj 196 -459 int;
#X obj 196 -418 int;
#X obj 196 -377 int;
#X obj 235 -478 r R;
#X obj 234 -436 r G;
#X obj 234 -397 r B;
#N canvas 724 125 639 615 rainbow 0;
#X floatatom 184 431 5 0 0 1 value - -;
#X floatatom 163 410 5 0 0 1 channel - -;
#X obj 163 454 pack;
#X obj 191 509 print mess;
#X msg 163 482 print \$1c\$2w;
#X floatatom 396 119 5 0 0 1 SPEED - -;
#X obj 46 207 tgl 15 0 empty empty empty 17 7 0 10 -262144 -1 -1 0
1;
#X obj 88 306 bng 15 250 50 0 empty empty empty 17 7 0 10 -262144 -1
-1;
#X floatatom 30 310 5 0 0 0 - - -;
#X floatatom 109 304 5 0 0 0 - - -;
#X msg 182 160 min 1;
#X obj 396 145 bng 15 250 50 0 empty empty SET1 17 7 0 10 -262144 -1
-1;
#X text 123 280 NUM. CHANNELS (lights x 3);
#X floatatom 340 224 5 0 0 1 SPEED - -;
#X obj 284 199 tgl 15 0 empty empty empty 17 7 0 10 -262144 -1 -1 0
1;
#X obj 326 303 bng 15 250 50 0 empty empty empty 17 7 0 10 -262144
-1 -1;
#X floatatom 268 307 5 0 0 0 - - -;
#X floatatom 347 301 5 0 0 0 - - -;
#X obj 73 572 s;
#X msg 42 488 symbol R;
#X msg 65 510 symbol G;
#X msg 88 532 symbol B;
#X text 361 277 VALUE;
#X obj 17 387 mod 3;
#X floatatom 17 407 5 0 0 0 - - -;
#X obj 42 438 select 0 1 2;
#X obj 42 460 bng 15 250 50 0 empty empty empty 17 7 0 10 -258113 -1
-1;
#X obj 65 461 bng 15 250 50 0 empty empty empty 17 7 0 10 -4034 -1
-1;
#X obj 88 461 bng 15 250 50 0 empty empty empty 17 7 0 10 -4160 -1
-1;
#X msg 358 50 1;
#X msg 358 72 0;
#X obj 46 257 metro 100;
#X obj 284 254 metro 300;
#X obj 46 282 counter 180;
#X obj 284 279 counter 255;
#X msg 182 183 jam 1;
#X obj 358 122 bng 15 250 50 0 empty empty empty 17 7 0 10 -262144
-1 -1;
#X msg 358 94 0;
#X obj 515 51 loadbang;
#X msg 515 72 100;
#X obj 340 169 * 3;
#X obj 396 50 bng 15 250 50 0 empty empty START 17 7 0 10 -99865 -1
-1;
#X obj 396 72 bng 15 250 50 0 empty empty PAUSE 17 7 0 10 -262144 -1
-1;
#X obj 396 94 bng 15 250 50 0 empty empty STOP 17 7 0 10 -261234 -1
-1;
#X obj 396 165 bng 15 250 50 0 empty empty SYNC 17 7 0 10 -191407 -1
-1;
#X text 410 455 COMPORT!!!!;
#X connect 0 0 2 1;
#X connect 0 0 18 0;
#X connect 1 0 2 0;
#X connect 2 0 4 0;
#X connect 4 0 3 0;
#X connect 5 0 31 1;
#X connect 5 0 40 0;
#X connect 6 0 31 0;
#X connect 10 0 33 0;
#X connect 10 0 34 0;
#X connect 11 0 10 0;
#X connect 11 0 35 0;
#X connect 13 0 32 1;
#X connect 14 0 32 0;
#X connect 16 0 0 0;
#X connect 19 0 18 1;
#X connect 20 0 18 1;
#X connect 21 0 18 1;
#X connect 23 0 24 0;
#X connect 24 0 25 0;
#X connect 25 0 26 0;
#X connect 25 1 27 0;
#X connect 25 2 28 0;
#X connect 26 0 19 0;
#X connect 27 0 20 0;
#X connect 28 0 21 0;
#X connect 29 0 14 0;
#X connect 29 0 6 0;
#X connect 30 0 14 0;
#X connect 30 0 6 0;
#X connect 31 0 33 0;
#X connect 32 0 34 0;
#X connect 33 0 8 0;
#X connect 33 0 1 0;
#X connect 33 0 23 0;
#X connect 33 2 7 0;
#X connect 33 3 9 0;
#X connect 34 0 16 0;
#X connect 34 2 15 0;
#X connect 34 3 17 0;
#X connect 35 0 33 0;
#X connect 35 0 34 0;
#X connect 36 0 33 2;
#X connect 36 0 34 2;
#X connect 37 0 14 0;
#X connect 37 0 36 0;
#X connect 37 0 6 0;
#X connect 38 0 39 0;
#X connect 39 0 5 0;
#X connect 39 0 11 0;
#X connect 40 0 13 0;
#X connect 41 0 29 0;
#X connect 42 0 30 0;
#X connect 43 0 37 0;
#X coords 0 -1 1 1 120 200 1 380 20;
#X restore 42 -484 pd rainbow;
#X connect 0 0 3 0;
#X connect 1 0 4 0;
#X connect 2 0 5 0;
#X connect 6 0 0 0;
#X connect 7 0 1 0;
#X connect 8 0 2 0;
#X coords 0 254 1 253 120 120 0;
