#N canvas 464 231 561 395 10;
#X floatatom 231 81 5 0 0 0 - - -;
#X obj 220 105 / 25;
#X obj 254 105 mod 25;
#X obj 220 139 mod 2;
#X floatatom 220 160 5 0 0 0 - - -;
#X msg 297 129 25;
#X obj 297 160 -;
#X obj 187 183 spigot;
#X obj 241 252 hsl 128 15 0 25 0 0 empty empty empty -2 -8 0 10 -262144
-1 -1 9144 1;
#X msg 330 139 1;
#X obj 330 160 -;
#X obj 297 183 spigot;
#X connect 0 0 1 0;
#X connect 0 0 2 0;
#X connect 1 0 3 0;
#X connect 2 0 6 1;
#X connect 2 0 7 0;
#X connect 2 0 5 0;
#X connect 3 0 4 0;
#X connect 4 0 7 1;
#X connect 4 0 10 1;
#X connect 4 0 9 0;
#X connect 5 0 6 0;
#X connect 6 0 11 0;
#X connect 7 0 8 0;
#X connect 9 0 10 0;
#X connect 10 0 11 1;
#X connect 11 0 8 0;
